<?xml version="1.0" encoding="UTF-8" ?>
<!DOCTYPE svg PUBLIC "-//W3C//DTD SVG 1.1//EN" "http://www.w3.org/Graphics/SVG/1.1/DTD/svg11.dtd">
<svg width="750pt" height="510pt" viewBox="0 0 750 510" version="1.1" xmlns="http://www.w3.org/2000/svg">
<path fill="#ffffff" d=" M 0.00 0.00 L 15.00 0.00 C 15.00 0.75 15.00 2.25 15.00 3.00 C 13.00 3.00 11.00 3.00 9.00 3.00 C 9.00 3.75 9.00 5.25 9.00 6.00 C 8.25 6.00 6.75 6.00 6.00 6.00 C 6.00 6.75 6.00 8.25 6.00 9.00 C 5.25 9.00 3.75 9.00 3.00 9.00 C 3.00 11.00 3.00 13.00 3.00 15.00 C 2.25 15.00 0.75 15.00 0.00 15.00 L 0.00 0.00 Z" />
<path fill="#000000" d=" M 15.00 0.00 L 735.00 0.00 C 735.00 0.75 735.00 2.25 735.00 3.00 C 736.99 3.00 738.99 3.00 741.00 3.00 C 741.00 3.75 741.00 5.25 741.00 6.00 C 741.75 6.00 743.25 6.00 744.00 6.00 C 744.00 6.75 744.00 8.25 744.00 9.00 C 744.75 9.00 746.25 9.00 747.00 9.00 C 746.99 11.00 746.99 13.00 747.00 15.00 C 747.75 15.00 749.25 15.00 750.00 15.00 L 750.00 498.00 C 749.25 498.00 747.75 498.00 747.00 498.00 C 747.00 498.75 747.00 500.25 747.00 501.00 C 746.25 501.00 744.75 501.00 744.00 501.00 C 744.00 501.75 744.00 503.25 744.00 504.00 C 743.25 504.00 741.75 504.00 741.00 504.00 C 741.00 504.75 741.00 506.25 741.00 507.00 C 738.99 506.99 736.99 506.99 735.00 507.00 C 735.00 507.75 735.00 509.25 735.00 510.00 L 15.00 510.00 C 15.00 509.25 15.00 507.75 15.00 507.00 C 13.00 506.99 11.00 506.99 9.00 507.00 C 9.00 506.25 9.00 504.75 9.00 504.00 C 8.25 504.00 6.75 504.00 6.00 504.00 C 6.00 503.25 6.00 501.75 6.00 501.00 C 5.25 501.00 3.75 501.00 3.00 501.00 C 3.00 500.25 3.00 498.75 3.00 498.00 C 2.25 498.00 0.75 498.00 0.00 498.00 L 0.00 15.00 C 0.75 15.00 2.25 15.00 3.00 15.00 C 3.00 13.00 3.00 11.00 3.00 9.00 C 3.75 9.00 5.25 9.00 6.00 9.00 C 6.00 8.25 6.00 6.75 6.00 6.00 C 6.75 6.00 8.25 6.00 9.00 6.00 C 9.00 5.25 9.00 3.75 9.00 3.00 C 11.00 3.00 13.00 3.00 15.00 3.00 C 15.00 2.25 15.00 0.75 15.00 0.00 Z" />
<path fill="#ffffff" d=" M 735.00 0.00 L 750.00 0.00 L 750.00 15.00 C 749.25 15.00 747.75 15.00 747.00 15.00 C 746.99 13.00 746.99 11.00 747.00 9.00 C 746.25 9.00 744.75 9.00 744.00 9.00 C 744.00 8.25 744.00 6.75 744.00 6.00 C 743.25 6.00 741.75 6.00 741.00 6.00 C 741.00 5.25 741.00 3.75 741.00 3.00 C 738.99 3.00 736.99 3.00 735.00 3.00 C 735.00 2.25 735.00 0.75 735.00 0.00 Z" />
<path fill="#737373" d=" M 12.01 9.00 C 12.76 9.00 14.26 9.00 15.01 9.00 C 14.99 163.00 15.00 317.00 15.00 470.99 C 14.26 471.00 12.76 471.00 12.01 471.00 C 12.00 471.75 11.99 473.25 11.98 474.00 C 11.24 474.00 9.74 474.00 9.00 473.99 C 9.00 321.00 9.00 168.01 9.00 15.02 C 9.00 14.27 9.00 12.76 9.00 12.01 C 9.75 12.01 11.24 12.00 11.99 11.99 C 12.00 11.24 12.01 9.75 12.01 9.00 Z" />
<path fill="#3e3e3e" d=" M 15.01 9.00 C 15.76 9.00 17.28 9.00 18.03 9.00 C 17.97 163.00 17.98 317.00 18.04 471.00 C 17.28 471.00 15.76 470.99 15.00 470.99 C 15.00 317.00 14.99 163.00 15.01 9.00 Z" />
<path fill="#303030" d=" M 18.03 9.00 C 18.77 9.00 20.25 9.00 20.98 8.99 C 21.01 163.00 21.01 317.00 20.99 471.01 C 20.25 471.00 18.78 471.00 18.04 471.00 C 17.98 317.00 17.97 163.00 18.03 9.00 Z" />
<path fill="#303030" d=" M 30.00 9.01 C 260.98 8.99 491.96 9.00 722.95 9.01 C 723.04 163.00 723.04 317.00 722.94 471.00 C 491.96 471.00 260.98 471.01 30.00 470.99 C 30.00 470.24 30.00 468.75 30.00 468.00 C 237.00 467.99 444.00 468.01 650.99 467.99 C 651.02 457.99 650.97 448.00 651.01 438.00 C 660.90 437.99 670.79 438.00 680.68 438.01 C 680.83 437.32 681.11 435.94 681.26 435.25 C 681.95 435.11 683.32 434.83 684.01 434.68 C 683.99 302.89 683.99 171.11 684.01 39.32 C 683.32 39.17 681.95 38.88 681.27 38.74 C 681.12 38.05 680.82 36.68 680.66 35.99 C 670.78 35.99 660.89 36.02 651.00 35.99 C 650.99 28.00 651.00 20.00 651.00 12.01 C 444.00 11.98 237.00 12.01 30.00 12.00 C 30.00 11.25 30.00 9.76 30.00 9.01 Z" />
<path fill="#3e3e3e" d=" M 722.95 9.01 C 725.96 9.01 728.97 9.00 731.99 9.00 C 732.00 163.00 732.01 317.00 731.99 471.00 C 728.97 470.99 725.95 470.99 722.94 471.00 C 723.04 317.00 723.04 163.00 722.95 9.01 Z" />
<path fill="#737373" d=" M 731.99 9.00 C 732.74 9.00 734.24 9.00 734.99 9.00 C 734.99 9.75 735.00 11.25 735.00 11.99 C 735.75 12.00 737.25 12.01 738.00 12.01 C 738.00 166.01 738.00 320.00 738.00 474.00 C 737.26 474.00 735.76 474.00 735.01 474.00 C 735.01 473.25 735.00 471.76 735.00 471.01 C 734.24 471.00 732.74 471.00 731.99 471.00 C 732.01 317.00 732.00 163.00 731.99 9.00 Z" />
<path fill="#303030" d=" M 27.01 12.00 C 27.76 12.00 29.25 12.00 30.00 12.00 C 30.00 164.00 30.00 316.00 30.00 468.00 C 29.25 468.00 27.76 468.00 27.01 468.01 C 26.99 316.00 26.99 164.00 27.01 12.00 Z" />
<path fill="#000000" d=" M 30.00 12.00 C 237.00 12.01 444.00 11.98 651.00 12.01 C 651.00 20.00 650.99 28.00 651.00 35.99 C 660.89 36.02 670.78 35.99 680.66 35.99 C 680.82 36.68 681.12 38.05 681.27 38.74 C 681.95 38.88 683.32 39.17 684.01 39.32 C 683.99 171.11 683.99 302.89 684.01 434.68 C 683.32 434.83 681.95 435.11 681.26 435.25 C 681.11 435.94 680.83 437.32 680.68 438.01 C 670.79 438.00 660.90 437.99 651.01 438.00 C 650.97 448.00 651.02 457.99 650.99 467.99 C 444.00 468.01 237.00 467.99 30.00 468.00 C 30.00 316.00 30.00 164.00 30.00 12.00 Z" />
<path fill="#3e3e3e" d=" M 738.00 12.01 C 738.75 12.01 740.25 11.99 741.00 11.99 C 741.00 12.74 741.00 14.25 741.00 15.00 C 741.01 168.00 740.97 320.99 741.01 473.99 C 740.26 473.99 738.75 474.00 738.00 474.00 C 738.00 320.00 738.00 166.01 738.00 12.01 Z" />
<path fill="#3e3e3e" d=" M 6.01 14.99 C 6.76 15.00 8.25 15.01 9.00 15.02 C 9.00 168.01 9.00 321.00 9.00 473.99 C 9.00 474.75 9.00 476.25 9.00 477.00 C 8.25 477.00 6.75 476.99 6.00 476.99 C 6.01 325.00 6.01 173.01 6.00 21.01 C 6.00 19.01 6.00 17.00 6.01 14.99 Z" />
<path fill="#303030" d=" M 741.00 15.00 C 741.75 15.00 743.24 15.00 743.99 14.99 C 743.99 17.02 743.99 19.04 744.00 21.07 C 743.98 173.04 744.01 325.02 744.00 477.00 C 743.25 477.00 741.75 476.99 741.00 476.99 C 741.00 476.24 741.00 474.74 741.01 473.99 C 740.97 320.99 741.01 168.00 741.00 15.00 Z" />
<path fill="#303030" d=" M 3.01 20.99 C 3.76 21.00 5.25 21.01 6.00 21.01 C 6.01 173.01 6.01 325.00 6.00 476.99 C 6.00 477.74 6.00 479.25 6.00 480.01 C 5.25 480.01 3.76 480.00 3.01 480.00 C 3.00 327.00 2.99 174.00 3.01 20.99 Z" />
<path fill="#212121" d=" M 744.00 21.07 C 744.74 21.05 746.23 21.00 746.97 20.98 C 747.02 173.99 747.02 327.00 746.97 480.00 C 746.23 480.00 744.74 480.00 744.00 480.00 C 744.00 479.25 744.00 477.75 744.00 477.00 C 744.01 325.02 743.98 173.04 744.00 21.07 Z" />
<path fill="#212121" d=" M 582.28 39.00 C 615.18 39.02 648.07 38.96 680.96 39.03 C 681.03 171.00 681.01 302.98 680.98 434.95 C 646.99 435.07 613.00 434.97 579.02 435.00 C 578.97 304.10 579.02 173.20 579.00 42.30 C 579.69 42.16 581.07 41.88 581.76 41.74 C 581.89 41.05 582.15 39.68 582.28 39.00 Z" />
<path fill="#4b4b4b" d=" M 585.00 42.02 C 599.03 41.99 613.06 41.98 627.09 42.02 C 627.09 42.76 627.08 44.24 627.08 44.98 C 613.05 45.03 599.02 44.99 584.99 44.99 C 585.00 44.25 585.00 42.76 585.00 42.02 Z" />
<path fill="#3e3e3e" d=" M 627.09 42.02 C 639.97 41.60 652.82 42.79 665.69 42.42 C 665.70 42.96 665.70 44.04 665.71 44.58 C 652.82 44.22 639.96 45.40 627.08 44.98 C 627.08 44.24 627.09 42.76 627.09 42.02 Z" />
<path fill="#4b4b4b" d=" M 582.02 45.00 C 582.76 45.00 584.25 45.00 584.99 44.99 C 585.00 76.02 585.02 107.04 584.98 138.06 C 584.24 138.07 582.76 138.11 582.02 138.12 C 581.98 107.08 581.99 76.04 582.02 45.00 Z" />
<path fill="#df0024" d=" M 610.01 54.00 C 612.00 54.00 613.99 54.00 615.98 54.00 C 615.99 54.75 616.00 56.24 616.01 56.99 C 616.76 57.00 618.25 57.01 619.00 57.01 C 618.99 59.00 618.99 61.00 619.00 62.99 C 618.25 62.99 616.76 63.00 616.01 63.00 C 616.01 63.75 615.99 65.25 615.98 66.00 C 613.99 66.00 612.00 66.00 610.02 66.00 C 610.01 65.25 610.00 63.75 609.99 63.01 C 609.24 63.00 607.75 62.99 607.00 62.99 C 606.99 61.00 606.99 59.00 607.00 57.01 C 607.75 57.01 609.24 57.00 609.99 56.99 C 610.00 56.25 610.01 54.75 610.01 54.00 Z" />
<path fill="#6c000a" d=" M 628.14 53.99 C 630.04 53.99 631.95 53.99 633.86 53.99 C 633.92 54.72 634.04 56.17 634.10 56.89 C 634.83 56.96 636.28 57.08 637.01 57.14 C 637.00 59.05 637.00 60.95 637.01 62.86 C 636.29 62.92 634.84 63.03 634.12 63.09 C 634.05 63.82 633.92 65.28 633.85 66.01 C 631.94 66.01 630.03 66.01 628.13 66.01 C 628.07 65.28 627.96 63.83 627.91 63.11 C 627.18 63.05 625.72 62.92 624.99 62.86 C 624.98 60.95 624.98 59.04 624.99 57.13 C 625.71 57.08 627.16 56.97 627.88 56.91 C 627.95 56.18 628.08 54.72 628.14 53.99 Z" />
<path fill="#6c000a" d=" M 646.14 53.99 C 648.04 53.99 649.94 53.99 651.86 53.99 C 651.92 54.72 652.04 56.17 652.10 56.89 C 652.83 56.96 654.28 57.08 655.01 57.14 C 655.00 59.05 655.00 60.96 655.01 62.87 C 654.28 62.93 652.82 63.04 652.10 63.10 C 652.04 63.83 651.92 65.28 651.86 66.01 C 649.95 66.01 648.04 66.01 646.14 66.01 C 646.08 65.28 645.96 63.83 645.90 63.11 C 645.18 63.04 643.72 62.92 642.99 62.86 C 642.98 60.95 642.98 59.05 642.99 57.14 C 643.72 57.08 645.18 56.95 645.91 56.89 C 645.97 56.16 646.08 54.71 646.14 53.99 Z" />
<path fill="#c1c1c1" d=" M 610.00 72.00 C 611.99 72.00 613.99 72.00 616.00 72.00 C 616.00 72.75 616.00 74.25 616.00 75.00 C 615.25 75.00 613.75 75.00 613.00 75.00 C 613.00 75.75 613.00 77.25 613.00 78.00 C 612.25 78.00 610.75 78.00 610.00 78.00 C 609.99 76.00 609.99 74.00 610.00 72.00 Z" />
<path fill="#c1c1c1" d=" M 628.00 72.00 C 629.99 72.00 631.99 72.00 634.00 72.00 C 633.99 74.00 633.99 76.00 634.00 78.00 C 631.99 78.00 629.99 78.00 628.00 78.00 C 627.99 76.00 627.99 74.00 628.00 72.00 Z" />
<path fill="#c1c1c1" d=" M 646.00 72.00 C 646.75 72.00 648.25 72.00 649.00 72.00 C 649.00 72.75 649.00 74.25 649.00 75.00 C 648.25 75.00 646.75 75.00 646.00 75.00 C 646.00 74.25 646.00 72.75 646.00 72.00 Z" />
<path fill="#c1c1c1" d=" M 649.00 75.00 C 649.75 75.00 651.25 75.00 652.00 75.00 C 652.00 75.75 652.00 77.25 652.00 78.00 C 651.25 78.00 649.75 78.00 649.00 78.00 C 649.00 77.25 649.00 75.75 649.00 75.00 Z" />
<path fill="#737373" d=" M 610.04 87.00 C 624.01 87.00 637.98 87.00 651.96 87.00 C 651.98 87.74 652.01 89.23 652.02 89.97 C 652.77 89.99 654.26 90.03 655.00 90.04 C 655.00 90.72 655.00 92.07 655.01 92.74 C 654.36 92.87 653.06 93.12 652.41 93.25 C 652.20 93.93 651.77 95.30 651.56 95.98 C 637.85 96.03 624.14 95.99 610.44 96.00 C 610.23 95.30 609.81 93.91 609.61 93.21 C 608.95 93.10 607.65 92.88 606.99 92.78 C 606.99 92.09 607.00 90.73 607.00 90.04 C 607.74 90.02 609.24 89.98 609.99 89.96 C 610.00 89.22 610.02 87.74 610.04 87.00 Z" />
<path fill="#4b4b4b" d=" M 606.99 92.78 C 607.65 92.88 608.95 93.10 609.61 93.21 C 609.81 93.91 610.23 95.30 610.44 96.00 C 624.14 95.99 637.85 96.03 651.56 95.98 C 651.77 95.30 652.20 93.93 652.41 93.25 C 653.06 93.12 654.36 92.87 655.01 92.74 C 655.01 93.51 655.01 95.04 655.01 95.80 C 654.29 95.89 652.85 96.07 652.13 96.15 C 652.05 96.87 651.90 98.29 651.82 99.01 C 637.94 99.00 624.07 99.00 610.20 99.01 C 610.11 98.29 609.94 96.86 609.86 96.14 C 609.14 96.06 607.71 95.89 607.00 95.81 C 607.00 95.05 606.99 93.53 606.99 92.78 Z" />
<path fill="#c1c1c1" d=" M 607.00 105.00 C 607.75 105.00 609.25 105.00 610.00 105.00 C 610.00 105.75 610.00 107.25 610.00 108.00 C 610.75 108.00 612.25 108.00 613.00 108.00 C 613.00 108.75 613.00 110.25 613.00 111.00 C 610.99 111.00 608.99 111.00 607.00 111.00 C 606.99 109.00 606.99 107.00 607.00 105.00 Z" />
<path fill="#c1c1c1" d=" M 616.00 105.00 C 617.99 105.00 619.99 105.00 622.00 105.00 C 621.99 107.00 621.99 109.00 622.00 111.00 C 621.25 111.00 619.75 111.00 619.00 111.00 C 619.00 110.25 619.00 108.75 619.00 108.00 C 618.25 108.00 616.75 108.00 616.00 108.00 C 616.00 107.25 616.00 105.75 616.00 105.00 Z" />
<path fill="#c1c1c1" d=" M 625.00 105.00 C 626.99 105.00 628.99 105.00 631.00 105.00 C 630.99 107.00 630.99 109.00 631.00 111.00 C 628.99 111.00 626.99 111.00 625.00 111.00 C 624.99 109.00 624.99 107.00 625.00 105.00 Z" />
<path fill="#c1c1c1" d=" M 634.00 105.00 C 634.75 105.00 636.25 105.00 637.00 105.00 C 636.99 107.00 636.99 109.00 637.00 111.00 C 636.25 111.00 634.75 111.00 634.00 111.00 C 633.99 109.00 633.99 107.00 634.00 105.00 Z" />
<path fill="#c1c1c1" d=" M 640.00 105.00 C 640.75 105.00 642.25 105.00 643.00 105.00 C 643.00 105.75 643.00 107.25 643.00 108.00 C 643.75 108.00 645.25 108.00 646.00 108.00 C 646.00 108.75 646.00 110.25 646.00 111.00 C 643.99 111.00 641.99 111.00 640.00 111.00 C 639.99 109.00 639.99 107.00 640.00 105.00 Z" />
<path fill="#c1c1c1" d=" M 649.00 105.00 C 650.99 105.00 652.99 105.00 655.00 105.00 C 654.99 107.00 654.99 109.00 655.00 111.00 C 652.99 111.00 650.99 111.00 649.00 111.00 C 648.99 109.00 648.99 107.00 649.00 105.00 Z" />
<path fill="#4b4b4b" d=" M 594.20 122.99 C 602.07 123.00 609.94 123.00 617.81 122.99 C 617.89 123.71 618.06 125.13 618.15 125.85 C 618.86 125.94 620.30 126.11 621.02 126.20 C 621.01 126.92 620.99 128.35 620.98 129.06 C 620.37 129.18 619.14 129.42 618.53 129.54 C 618.42 130.16 618.19 131.39 618.08 132.00 C 610.02 132.00 601.97 132.00 593.92 132.01 C 593.81 131.38 593.59 130.12 593.47 129.49 C 592.86 129.39 591.63 129.19 591.01 129.09 C 591.00 128.37 590.99 126.93 590.99 126.20 C 591.70 126.12 593.13 125.94 593.84 125.86 C 593.93 125.14 594.11 123.71 594.20 122.99 Z" />
<path fill="#4b4b4b" d=" M 642.20 122.99 C 650.07 123.00 657.94 123.00 665.82 122.99 C 665.90 123.71 666.06 125.14 666.14 125.85 C 666.86 125.94 668.30 126.11 669.02 126.19 C 669.00 126.90 668.98 128.30 668.97 129.01 C 668.36 129.15 667.15 129.44 666.55 129.58 C 666.43 130.18 666.19 131.39 666.07 132.00 C 658.02 132.00 649.97 132.00 641.93 132.00 C 641.81 131.38 641.58 130.14 641.47 129.53 C 640.86 129.41 639.63 129.18 639.02 129.07 C 639.01 128.35 638.99 126.92 638.99 126.20 C 639.70 126.11 641.13 125.94 641.85 125.86 C 641.94 125.14 642.11 123.71 642.20 122.99 Z" />
<path fill="#303030" d=" M 593.92 132.01 C 601.97 132.00 610.02 132.00 618.08 132.00 C 618.04 132.74 617.97 134.21 617.94 134.95 C 610.00 135.04 602.06 135.06 594.13 134.92 C 594.08 134.20 593.97 132.74 593.92 132.01 Z" />
<path fill="#303030" d=" M 641.93 132.00 C 649.97 132.00 658.02 132.00 666.07 132.00 C 666.04 132.72 665.97 134.18 665.93 134.91 C 657.99 135.07 650.05 135.06 642.11 134.94 C 642.06 134.20 641.97 132.74 641.93 132.00 Z" />
<path fill="#3e3e3e" d=" M 582.02 138.12 C 582.76 138.11 584.24 138.07 584.98 138.06 C 585.01 151.06 585.01 164.06 584.98 177.07 C 584.25 177.07 582.78 177.07 582.04 177.08 C 581.95 164.09 582.00 151.11 582.02 138.12 Z" />
<path fill="#4b4b4b" d=" M 594.20 143.99 C 602.06 144.00 609.93 144.00 617.80 143.99 C 617.89 144.71 618.08 146.16 618.17 146.88 C 618.88 146.96 620.30 147.11 621.01 147.19 C 621.01 147.91 620.99 149.37 620.99 150.09 C 620.37 150.19 619.13 150.40 618.51 150.50 C 618.41 151.12 618.20 152.38 618.10 153.01 C 610.04 152.99 601.98 152.99 593.93 153.01 C 593.82 152.39 593.59 151.15 593.48 150.52 C 592.86 150.41 591.63 150.19 591.01 150.08 C 591.00 149.36 590.99 147.92 590.99 147.20 C 591.70 147.11 593.14 146.94 593.85 146.85 C 593.94 146.14 594.11 144.71 594.20 143.99 Z" />
<path fill="#4b4b4b" d=" M 642.18 143.99 C 650.06 144.00 657.94 144.00 665.82 143.99 C 665.90 144.70 666.05 146.13 666.13 146.84 C 666.85 146.93 668.30 147.11 669.02 147.20 C 669.01 147.91 668.98 149.34 668.97 150.05 C 668.37 150.17 667.16 150.43 666.56 150.56 C 666.43 151.17 666.16 152.40 666.02 153.01 C 657.99 152.99 649.97 152.99 641.94 153.01 C 641.82 152.40 641.58 151.16 641.46 150.55 C 640.85 150.42 639.64 150.18 639.03 150.05 C 639.02 149.34 639.00 147.92 638.98 147.20 C 639.70 147.11 641.14 146.93 641.86 146.84 C 641.94 146.13 642.10 144.71 642.18 143.99 Z" />
<path fill="#303030" d=" M 593.93 153.01 C 601.98 152.99 610.04 152.99 618.10 153.01 C 618.04 153.74 617.92 155.21 617.86 155.94 C 609.93 156.06 602.01 156.06 594.09 155.93 C 594.05 155.20 593.97 153.74 593.93 153.01 Z" />
<path fill="#303030" d=" M 641.94 153.01 C 649.97 152.99 657.99 152.99 666.02 153.01 C 665.99 153.75 665.91 155.21 665.87 155.95 C 657.96 156.05 650.04 156.04 642.12 155.94 C 642.08 155.20 641.99 153.74 641.94 153.01 Z" />
<path fill="#303030" d=" M 627.06 171.03 C 629.01 171.03 630.97 171.02 632.94 171.02 C 632.96 171.73 632.99 173.13 633.00 173.84 C 632.25 173.92 630.75 174.08 629.99 174.16 C 629.99 178.10 629.99 182.05 629.99 186.00 C 629.26 186.00 627.79 186.00 627.06 186.00 C 626.95 181.01 626.95 176.02 627.06 171.03 Z" />
<path fill="#c1c1c1" d=" M 606.00 174.00 C 609.00 174.00 612.00 174.00 615.00 174.00 C 615.00 174.75 615.00 176.25 615.00 177.00 C 611.99 177.00 608.99 177.00 606.00 177.00 C 606.00 176.25 606.00 174.75 606.00 174.00 Z" />
<path fill="#000000" d=" M 629.99 174.16 C 630.75 174.08 632.25 173.92 633.00 173.84 C 633.01 177.89 633.01 181.94 633.00 186.00 C 632.25 186.00 630.74 186.00 629.99 186.00 C 629.99 182.05 629.99 178.10 629.99 174.16 Z" />
<path fill="#c1c1c1" d=" M 645.00 174.00 C 647.99 174.00 650.99 174.00 654.00 174.00 C 654.00 174.75 654.00 176.25 654.00 177.00 C 651.00 177.00 648.00 177.00 645.00 177.00 C 645.00 176.25 645.00 174.75 645.00 174.00 Z" />
<path fill="#303030" d=" M 582.04 177.08 C 582.78 177.07 584.25 177.07 584.98 177.07 C 584.97 204.04 585.11 231.01 584.91 257.98 C 584.19 257.95 582.76 257.91 582.05 257.89 C 581.93 230.95 582.00 204.01 582.04 177.08 Z" />
<path fill="#c1c1c1" d=" M 612.00 180.00 C 612.75 180.00 614.25 180.00 615.00 180.00 C 615.00 180.75 615.00 182.25 615.00 183.00 C 614.25 183.00 612.75 183.00 612.00 183.00 C 612.00 182.25 612.00 180.75 612.00 180.00 Z" />
<path fill="#c1c1c1" d=" M 645.00 180.00 C 645.75 180.00 647.25 180.00 648.00 180.00 C 648.00 180.75 648.00 182.25 648.00 183.00 C 647.25 183.00 645.75 183.00 645.00 183.00 C 645.00 182.25 645.00 180.75 645.00 180.00 Z" />
<path fill="#303030" d=" M 675.08 180.12 C 675.79 180.09 677.21 180.02 677.92 179.99 C 678.04 187.99 678.04 195.98 677.96 203.98 C 677.23 203.96 675.78 203.93 675.05 203.92 C 674.97 195.98 674.93 188.05 675.08 180.12 Z" />
<path fill="#c1c1c1" d=" M 609.00 186.00 C 610.99 186.00 612.99 186.00 615.00 186.00 C 615.00 186.75 615.00 188.25 615.00 189.00 C 612.99 189.00 610.99 189.00 609.00 189.00 C 609.00 188.25 609.00 186.75 609.00 186.00 Z" />
<path fill="#737373" d=" M 621.00 186.00 C 623.01 186.00 625.03 186.00 627.06 186.00 C 627.79 186.00 629.26 186.00 629.99 186.00 C 630.74 186.00 632.25 186.00 633.00 186.00 C 634.99 186.00 637.00 186.00 639.00 186.00 C 638.99 189.00 638.99 192.00 639.00 195.00 C 638.25 195.00 636.76 195.00 636.02 195.00 C 636.01 194.25 636.00 192.73 635.99 191.97 C 635.98 191.23 635.97 189.74 635.96 189.00 C 631.99 189.00 628.01 189.00 624.04 189.00 C 624.03 189.74 624.02 191.24 624.01 191.98 C 624.00 192.74 623.99 194.25 623.98 195.00 C 623.24 195.00 621.75 195.00 621.00 195.00 C 621.00 192.00 621.00 189.00 621.00 186.00 Z" />
<path fill="#c1c1c1" d=" M 645.00 186.00 C 646.99 186.00 648.99 186.00 651.00 186.00 C 651.00 186.75 651.00 188.25 651.00 189.00 C 648.99 189.00 646.99 189.00 645.00 189.00 C 645.00 188.25 645.00 186.75 645.00 186.00 Z" />
<path fill="#4b4b4b" d=" M 624.04 189.00 C 628.01 189.00 631.99 189.00 635.96 189.00 C 635.97 189.74 635.98 191.23 635.99 191.97 C 631.99 192.00 628.00 192.00 624.01 191.98 C 624.02 191.24 624.03 189.74 624.04 189.00 Z" />
<path fill="#c1c1c1" d=" M 612.00 192.00 C 612.75 192.00 614.25 192.00 615.00 192.00 C 615.00 192.75 615.00 194.25 615.00 195.00 C 614.25 195.00 612.75 195.00 612.00 195.00 C 612.00 194.25 612.00 192.75 612.00 192.00 Z" />
<path fill="#c1c1c1" d=" M 645.00 192.00 C 645.75 192.00 647.25 192.00 648.00 192.00 C 648.00 192.75 648.00 194.25 648.00 195.00 C 647.25 195.00 645.75 195.00 645.00 195.00 C 645.00 194.25 645.00 192.75 645.00 192.00 Z" />
<path fill="#c1c1c1" d=" M 606.00 198.00 C 609.00 198.00 612.00 198.00 615.00 198.00 C 615.00 198.75 615.00 200.25 615.00 201.00 C 611.99 201.00 609.00 201.00 606.00 201.00 C 606.00 200.25 606.00 198.75 606.00 198.00 Z" />
<path fill="#c1c1c1" d=" M 624.00 198.00 C 628.00 198.00 632.00 198.00 636.00 198.00 C 636.00 198.75 636.00 200.25 636.00 201.00 C 632.00 201.00 628.00 201.00 624.00 201.00 C 624.00 200.25 624.00 198.75 624.00 198.00 Z" />
<path fill="#c1c1c1" d=" M 645.00 198.00 C 648.00 198.00 651.00 198.00 654.00 198.00 C 654.00 198.75 654.00 200.25 654.00 201.00 C 650.99 201.00 648.00 201.00 645.00 201.00 C 645.00 200.25 645.00 198.75 645.00 198.00 Z" />
<path fill="#c1c1c1" d=" M 612.00 204.00 C 612.75 204.00 614.25 204.00 615.00 204.00 C 615.00 204.75 615.00 206.25 615.00 207.00 C 614.25 207.00 612.75 207.00 612.00 207.00 C 612.00 206.25 612.00 204.75 612.00 204.00 Z" />
<path fill="#737373" d=" M 621.00 204.00 C 621.75 204.00 623.24 204.00 623.98 204.00 C 623.99 204.75 624.00 206.26 624.01 207.01 C 624.01 207.76 624.03 209.25 624.03 210.00 C 628.00 209.99 631.98 209.99 635.96 210.00 C 635.97 209.26 635.98 207.76 635.99 207.02 C 636.00 206.26 636.01 204.75 636.02 204.00 C 636.76 204.00 638.25 204.00 639.00 204.00 C 638.99 207.00 638.99 209.99 639.00 212.99 C 637.08 212.99 635.17 213.00 633.27 213.00 C 632.41 213.00 630.70 213.00 629.84 213.00 C 629.21 213.00 627.93 213.00 627.30 213.00 C 625.19 213.00 623.09 212.99 621.00 212.99 C 621.00 209.99 621.00 207.00 621.00 204.00 Z" />
<path fill="#c1c1c1" d=" M 645.00 204.00 C 645.75 204.00 647.25 204.00 648.00 204.00 C 648.00 204.75 648.00 206.25 648.00 207.00 C 647.25 207.00 645.75 207.00 645.00 207.00 C 645.00 206.25 645.00 204.75 645.00 204.00 Z" />
<path fill="#4b4b4b" d=" M 624.01 207.01 C 628.00 207.00 631.99 207.00 635.99 207.02 C 635.98 207.76 635.97 209.26 635.96 210.00 C 631.98 209.99 628.00 209.99 624.03 210.00 C 624.03 209.25 624.01 207.76 624.01 207.01 Z" />
<path fill="#c1c1c1" d=" M 609.00 210.00 C 610.99 210.00 612.99 210.00 615.00 210.00 C 615.00 210.75 615.00 212.25 615.00 213.00 C 612.99 213.00 610.99 213.00 609.00 213.00 C 609.00 212.25 609.00 210.75 609.00 210.00 Z" />
<path fill="#c1c1c1" d=" M 645.00 210.00 C 646.99 210.00 648.99 210.00 651.00 210.00 C 651.00 210.75 651.00 212.25 651.00 213.00 C 648.99 213.00 646.99 213.00 645.00 213.00 C 645.00 212.25 645.00 210.75 645.00 210.00 Z" />
<path fill="#303030" d=" M 627.30 213.00 C 627.93 213.00 629.21 213.00 629.84 213.00 C 630.19 232.95 629.91 252.91 630.00 272.87 C 630.75 272.94 632.25 273.07 633.00 273.14 C 632.97 273.86 632.91 275.30 632.88 276.02 C 630.93 275.99 628.99 275.97 627.05 275.95 C 627.11 254.96 626.69 233.97 627.30 213.00 Z" />
<path fill="#000000" d=" M 629.84 213.00 C 630.70 213.00 632.41 213.00 633.27 213.00 C 632.69 233.04 633.15 253.09 633.00 273.14 C 632.25 273.07 630.75 272.94 630.00 272.87 C 629.91 252.91 630.19 232.95 629.84 213.00 Z" />
<path fill="#303030" d=" M 675.05 213.08 C 675.77 213.06 677.21 213.02 677.92 213.01 C 678.05 249.99 678.06 286.98 677.93 323.97 C 677.20 323.95 675.76 323.91 675.04 323.89 C 675.02 286.95 674.91 250.01 675.05 213.08 Z" />
<path fill="#c1c1c1" d=" M 612.00 216.00 C 612.75 216.00 614.25 216.00 615.00 216.00 C 615.00 216.75 615.00 218.25 615.00 219.00 C 614.25 219.00 612.75 219.00 612.00 219.00 C 612.00 218.25 612.00 216.75 612.00 216.00 Z" />
<path fill="#c1c1c1" d=" M 645.00 216.00 C 645.75 216.00 647.25 216.00 648.00 216.00 C 648.00 216.75 648.00 218.25 648.00 219.00 C 647.25 219.00 645.75 219.00 645.00 219.00 C 645.00 218.25 645.00 216.75 645.00 216.00 Z" />
<path fill="#c1c1c1" d=" M 606.00 222.00 C 608.99 222.00 612.00 222.00 615.00 222.00 C 615.00 222.75 615.00 224.25 615.00 225.00 C 612.00 225.00 609.00 225.00 606.00 225.00 C 606.00 224.25 606.00 222.75 606.00 222.00 Z" />
<path fill="#c1c1c1" d=" M 645.00 222.00 C 648.00 222.00 651.00 222.00 654.00 222.00 C 654.00 222.75 654.00 224.25 654.00 225.00 C 651.00 225.00 647.99 225.00 645.00 225.00 C 645.00 224.25 645.00 222.75 645.00 222.00 Z" />
<path fill="#c1c1c1" d=" M 612.00 228.00 C 612.75 228.00 614.25 228.00 615.00 228.00 C 615.00 228.75 615.00 230.25 615.00 231.00 C 614.25 231.00 612.75 231.00 612.00 231.00 C 612.00 230.25 612.00 228.75 612.00 228.00 Z" />
<path fill="#c1c1c1" d=" M 645.00 228.00 C 645.75 228.00 647.25 228.00 648.00 228.00 C 648.00 228.75 648.00 230.25 648.00 231.00 C 647.25 231.00 645.75 231.00 645.00 231.00 C 645.00 230.25 645.00 228.75 645.00 228.00 Z" />
<path fill="#c1c1c1" d=" M 609.00 234.00 C 610.99 234.00 612.99 234.00 615.00 234.00 C 615.00 234.75 615.00 236.25 615.00 237.00 C 612.99 237.00 610.99 237.00 609.00 237.00 C 609.00 236.25 609.00 234.75 609.00 234.00 Z" />
<path fill="#c1c1c1" d=" M 645.00 234.00 C 646.99 234.00 648.99 234.00 651.00 234.00 C 651.00 234.75 651.00 236.25 651.00 237.00 C 648.99 237.00 646.99 237.00 645.00 237.00 C 645.00 236.25 645.00 234.75 645.00 234.00 Z" />
<path fill="#c1c1c1" d=" M 612.00 240.00 C 612.75 240.00 614.25 240.00 615.00 240.00 C 615.00 240.75 615.00 242.25 615.00 243.00 C 614.25 243.00 612.75 243.00 612.00 243.00 C 612.00 242.25 612.00 240.75 612.00 240.00 Z" />
<path fill="#c1c1c1" d=" M 645.00 240.00 C 645.75 240.00 647.25 240.00 648.00 240.00 C 648.00 240.75 648.00 242.25 648.00 243.00 C 647.25 243.00 645.75 243.00 645.00 243.00 C 645.00 242.25 645.00 240.75 645.00 240.00 Z" />
<path fill="#c1c1c1" d=" M 606.00 246.00 C 609.00 246.00 612.00 246.00 615.00 246.00 C 615.00 246.75 615.00 248.25 615.00 249.00 C 611.99 249.00 608.99 249.00 606.00 249.00 C 606.00 248.25 606.00 246.75 606.00 246.00 Z" />
<path fill="#c1c1c1" d=" M 645.00 246.00 C 648.00 246.00 651.00 246.00 654.00 246.00 C 654.00 246.75 654.00 248.25 654.00 249.00 C 651.00 249.00 648.00 249.00 645.00 249.00 C 645.00 248.25 645.00 246.75 645.00 246.00 Z" />
<path fill="#c1c1c1" d=" M 612.00 252.00 C 612.75 252.00 614.25 252.00 615.00 252.00 C 615.00 252.75 615.00 254.25 615.00 255.00 C 614.25 255.00 612.75 255.00 612.00 255.00 C 612.00 254.25 612.00 252.75 612.00 252.00 Z" />
<path fill="#c1c1c1" d=" M 645.00 252.00 C 645.75 252.00 647.25 252.00 648.00 252.00 C 648.00 252.75 648.00 254.25 648.00 255.00 C 647.25 255.00 645.75 255.00 645.00 255.00 C 645.00 254.25 645.00 252.75 645.00 252.00 Z" />
<path fill="#c1c1c1" d=" M 609.00 258.00 C 610.99 258.00 612.99 258.00 615.00 258.00 C 615.00 258.75 615.00 260.25 615.00 261.00 C 612.99 261.00 610.99 261.00 609.00 261.00 C 609.00 260.25 609.00 258.75 609.00 258.00 Z" />
<path fill="#c1c1c1" d=" M 645.00 258.00 C 646.99 258.00 648.99 258.00 651.00 258.00 C 651.00 258.75 651.00 260.25 651.00 261.00 C 648.99 261.00 646.99 261.00 645.00 261.00 C 645.00 260.25 645.00 258.75 645.00 258.00 Z" />
<path fill="#303030" d=" M 582.09 264.12 C 582.79 264.10 584.21 264.04 584.92 264.01 C 585.07 270.00 585.06 275.99 584.90 281.98 C 584.20 281.97 582.79 281.96 582.09 281.95 C 581.92 276.01 581.92 270.06 582.09 264.12 Z" />
<path fill="#c1c1c1" d=" M 612.00 264.00 C 612.75 264.00 614.25 264.00 615.00 264.00 C 615.00 264.75 615.00 266.25 615.00 267.00 C 614.25 267.00 612.75 267.00 612.00 267.00 C 612.00 266.25 612.00 264.75 612.00 264.00 Z" />
<path fill="#c1c1c1" d=" M 645.00 264.00 C 645.75 264.00 647.25 264.00 648.00 264.00 C 648.00 264.75 648.00 266.25 648.00 267.00 C 647.25 267.00 645.75 267.00 645.00 267.00 C 645.00 266.25 645.00 264.75 645.00 264.00 Z" />
<path fill="#c1c1c1" d=" M 606.00 270.00 C 608.99 270.00 611.99 270.00 615.00 270.00 C 615.00 270.75 615.00 272.25 615.00 273.00 C 612.00 273.00 609.00 273.00 606.00 273.00 C 606.00 272.25 606.00 270.75 606.00 270.00 Z" />
<path fill="#c1c1c1" d=" M 645.00 270.00 C 647.99 270.00 651.00 270.00 654.00 270.00 C 654.00 270.75 654.00 272.25 654.00 273.00 C 650.99 273.00 648.00 273.00 645.00 273.00 C 645.00 272.25 645.00 270.75 645.00 270.00 Z" />
<path fill="#980034" d=" M 618.05 291.00 C 626.01 291.00 633.98 291.00 641.94 291.00 C 641.97 291.74 642.02 293.23 642.04 293.97 C 642.78 293.99 644.26 294.03 645.00 294.06 C 645.00 294.76 645.01 296.17 645.01 296.88 C 644.31 296.92 642.92 297.01 642.22 297.05 C 642.10 297.79 641.87 299.27 641.75 300.01 C 633.91 300.00 626.08 300.00 618.24 300.01 C 618.12 299.26 617.88 297.77 617.76 297.03 C 617.07 296.99 615.68 296.93 614.99 296.90 C 614.99 296.19 615.00 294.77 615.00 294.06 C 615.74 294.04 617.22 293.99 617.97 293.96 C 617.99 293.22 618.03 291.74 618.05 291.00 Z" />
<path fill="#470209" d=" M 614.99 296.90 C 615.68 296.93 617.07 296.99 617.76 297.03 C 617.88 297.77 618.12 299.26 618.24 300.01 C 626.08 300.00 633.91 300.00 641.75 300.01 C 641.87 299.27 642.10 297.79 642.22 297.05 C 642.92 297.01 644.31 296.92 645.01 296.88 C 645.01 297.55 645.00 298.91 644.99 299.59 C 644.36 299.80 643.09 300.21 642.46 300.42 C 642.25 301.06 641.83 302.33 641.62 302.97 C 633.87 303.03 626.12 303.02 618.37 302.98 C 618.18 302.34 617.79 301.06 617.60 300.42 C 616.96 300.23 615.69 299.84 615.05 299.64 C 615.03 298.96 615.00 297.58 614.99 296.90 Z" />
<path fill="#c1c1c1" d=" M 612.00 309.00 C 613.99 309.00 615.99 309.00 618.00 309.00 C 618.00 309.75 618.00 311.25 618.00 312.00 C 617.25 312.00 615.75 312.00 615.00 312.00 C 615.00 312.75 615.00 314.25 615.00 315.00 C 612.99 315.00 610.99 315.00 609.00 315.00 C 609.00 314.25 609.00 312.75 609.00 312.00 C 609.75 312.00 611.25 312.00 612.00 312.00 C 612.00 311.25 612.00 309.75 612.00 309.00 Z" />
<path fill="#c1c1c1" d=" M 621.00 309.00 C 622.99 309.00 624.99 309.00 627.00 309.00 C 626.99 311.00 626.99 313.00 627.00 315.00 C 624.99 315.00 622.99 315.00 621.00 315.00 C 620.99 313.00 620.99 311.00 621.00 309.00 Z" />
<path fill="#c1c1c1" d=" M 630.00 309.00 C 630.75 309.00 632.25 309.00 633.00 309.00 C 633.00 309.75 633.00 311.25 633.00 312.00 C 633.75 312.00 635.25 312.00 636.00 312.00 C 636.00 311.25 636.00 309.75 636.00 309.00 C 638.00 309.00 639.99 309.00 642.00 309.00 C 642.00 309.75 642.00 311.25 642.00 312.00 C 641.25 312.00 639.75 312.00 639.00 312.00 C 639.00 312.75 639.00 314.25 639.00 315.00 C 635.99 315.00 632.99 315.00 630.00 315.00 C 629.99 313.00 629.99 311.00 630.00 309.00 Z" />
<path fill="#c1c1c1" d=" M 645.00 309.00 C 645.75 309.00 647.25 309.00 648.00 309.00 C 648.00 309.75 648.00 311.25 648.00 312.00 C 648.75 312.00 650.25 312.00 651.00 312.00 C 651.00 312.75 651.00 314.25 651.00 315.00 C 648.99 315.00 646.99 315.00 645.00 315.00 C 644.99 313.00 644.99 311.00 645.00 309.00 Z" />
<path fill="#000000" d=" M 621.29 333.01 C 627.09 332.98 632.89 332.98 638.69 333.01 C 638.84 333.74 639.14 335.20 639.29 335.93 C 642.08 335.94 644.88 335.99 647.68 336.05 C 647.84 336.75 648.16 338.15 648.32 338.85 C 650.08 338.94 651.85 339.03 653.62 339.13 C 653.83 339.73 654.25 340.92 654.46 341.51 C 654.99 341.75 656.03 342.22 656.55 342.45 C 656.80 342.96 657.28 343.97 657.52 344.48 C 658.03 344.72 659.04 345.20 659.54 345.44 C 659.78 345.95 660.27 346.97 660.52 347.47 C 661.02 347.72 662.04 348.21 662.54 348.46 C 662.79 348.99 663.29 350.06 663.54 350.59 C 664.12 350.79 665.30 351.18 665.89 351.37 C 665.97 353.14 666.06 354.90 666.16 356.68 C 666.85 356.83 668.23 357.15 668.92 357.31 C 668.98 360.13 669.10 362.97 669.09 365.80 C 669.82 365.92 671.27 366.16 671.99 366.29 C 672.01 372.08 672.01 377.87 672.00 383.66 C 671.27 383.82 669.81 384.14 669.08 384.30 C 669.04 387.05 669.00 389.81 668.94 392.57 C 667.93 392.95 666.92 393.33 665.92 393.70 C 665.93 395.33 665.96 396.97 665.98 398.61 C 665.35 398.81 664.10 399.21 663.48 399.41 C 663.25 399.95 662.79 401.04 662.56 401.58 C 662.05 401.81 661.04 402.28 660.54 402.51 C 660.29 403.02 659.79 404.05 659.54 404.56 C 659.01 404.79 657.95 405.26 657.42 405.49 C 657.22 406.12 656.82 407.36 656.62 407.99 C 655.97 407.98 654.66 407.98 654.01 407.98 C 654.01 407.17 654.02 405.55 654.02 404.74 C 654.49 404.59 655.43 404.29 655.90 404.14 C 658.13 402.08 660.31 399.97 662.43 397.80 C 662.67 396.28 662.92 394.77 663.20 393.27 C 663.90 393.13 665.30 392.84 666.01 392.69 C 666.00 389.89 665.99 387.08 666.00 384.28 C 666.75 384.14 668.26 383.85 669.01 383.71 C 669.00 377.90 669.00 372.10 669.01 366.29 C 668.26 366.15 666.75 365.86 665.99 365.71 C 665.99 362.90 666.00 360.10 666.01 357.29 C 665.23 357.15 663.66 356.85 662.88 356.70 C 662.89 356.29 662.90 355.48 662.90 355.08 C 662.92 354.08 662.95 352.08 662.97 351.08 C 662.24 351.04 660.78 350.97 660.05 350.93 C 660.02 350.21 659.98 348.78 659.95 348.06 C 659.23 348.03 657.79 347.97 657.07 347.94 C 657.03 347.22 656.97 345.78 656.94 345.06 C 656.22 345.03 654.78 344.97 654.07 344.94 C 654.02 344.21 653.94 342.73 653.89 342.00 C 651.96 342.00 650.04 342.00 648.12 342.00 C 648.06 341.25 647.94 339.75 647.88 338.99 C 644.95 339.00 642.03 339.00 639.12 339.01 C 639.06 338.25 638.94 336.75 638.88 336.00 C 632.96 336.00 627.04 336.00 621.11 336.00 C 621.06 336.75 620.94 338.25 620.88 339.01 C 617.96 339.00 615.03 339.00 612.12 338.99 C 612.06 339.75 611.94 341.25 611.88 342.00 C 609.95 342.00 608.03 341.99 606.11 342.00 C 606.06 342.73 605.97 344.21 605.93 344.94 C 605.21 344.97 603.77 345.03 603.06 345.06 C 603.03 345.78 602.97 347.22 602.94 347.94 C 602.22 347.97 600.78 348.03 600.06 348.06 C 600.03 348.78 599.97 350.22 599.94 350.94 C 599.22 350.97 597.76 351.04 597.03 351.08 C 597.05 352.08 597.08 354.08 597.10 355.08 C 597.10 355.48 597.11 356.29 597.12 356.69 C 596.34 356.84 594.77 357.15 593.99 357.31 C 593.99 360.10 594.00 362.90 594.01 365.71 C 593.25 365.85 591.74 366.15 590.99 366.30 C 590.99 372.10 590.99 377.90 590.99 383.70 C 591.74 383.85 593.25 384.15 594.01 384.30 C 594.00 387.09 593.99 389.89 593.99 392.69 C 594.70 392.83 596.12 393.12 596.82 393.27 C 597.05 394.81 597.29 396.36 597.53 397.92 C 601.04 400.85 604.25 404.12 607.15 407.66 C 608.77 407.67 610.39 407.69 612.03 407.75 C 612.02 408.56 612.00 410.18 611.99 410.99 C 610.11 410.98 608.24 410.99 606.38 411.00 C 606.18 410.37 605.78 409.13 605.58 408.51 C 605.06 408.27 604.01 407.79 603.48 407.55 C 603.21 407.08 602.67 406.16 602.40 405.70 C 600.76 404.25 599.15 402.78 597.52 401.33 C 597.25 400.86 596.73 399.91 596.46 399.44 C 595.87 399.24 594.70 398.84 594.11 398.64 C 594.03 396.87 593.96 395.11 593.89 393.36 C 593.18 393.19 591.76 392.84 591.05 392.67 C 591.00 389.88 590.96 387.09 590.93 384.31 C 590.20 384.15 588.74 383.85 588.01 383.70 C 587.98 377.89 587.98 372.09 588.02 366.29 C 588.75 366.14 590.21 365.84 590.93 365.68 C 590.95 362.89 591.00 360.09 591.05 357.30 C 591.76 357.14 593.18 356.83 593.89 356.67 C 593.96 354.90 594.02 353.14 594.10 351.38 C 594.70 351.17 595.89 350.76 596.48 350.55 C 596.72 350.04 597.21 349.01 597.45 348.49 C 597.90 348.22 598.82 347.68 599.27 347.41 C 600.72 345.77 602.20 344.16 603.66 342.52 C 604.12 342.26 605.05 341.73 605.51 341.46 C 605.73 340.87 606.18 339.69 606.41 339.10 C 608.15 339.03 609.89 338.96 611.65 338.89 C 611.81 338.18 612.15 336.77 612.32 336.06 C 615.13 335.97 617.95 335.94 620.77 335.91 C 620.90 335.18 621.16 333.74 621.29 333.01 Z" />
<path fill="#4b4b4b" d=" M 621.11 336.00 C 627.04 336.00 632.96 336.00 638.88 336.00 C 638.94 336.75 639.06 338.25 639.12 339.01 C 642.03 339.00 644.95 339.00 647.88 338.99 C 647.94 339.75 648.06 341.25 648.12 342.00 C 650.04 342.00 651.96 342.00 653.89 342.00 C 653.94 342.73 654.02 344.21 654.07 344.94 C 654.78 344.97 656.22 345.03 656.94 345.06 C 656.97 345.78 657.03 347.22 657.07 347.94 C 657.79 347.97 659.23 348.03 659.95 348.06 C 659.98 348.78 660.02 350.21 660.05 350.93 C 660.78 350.97 662.24 351.04 662.97 351.08 C 662.95 352.08 662.92 354.08 662.90 355.08 C 657.82 350.45 653.03 345.06 646.39 342.66 C 643.06 342.23 639.86 341.16 637.04 339.34 C 632.35 338.83 627.61 338.82 622.92 339.31 C 620.14 341.23 616.91 342.28 613.58 342.65 C 606.97 345.10 602.16 350.44 597.10 355.08 C 597.08 354.08 597.05 352.08 597.03 351.08 C 597.76 351.04 599.22 350.97 599.94 350.94 C 599.97 350.22 600.03 348.78 600.06 348.06 C 600.78 348.03 602.22 347.97 602.94 347.94 C 602.97 347.22 603.03 345.78 603.06 345.06 C 603.77 345.03 605.21 344.97 605.93 344.94 C 605.97 344.21 606.06 342.73 606.11 342.00 C 608.03 341.99 609.95 342.00 611.88 342.00 C 611.94 341.25 612.06 339.75 612.12 338.99 C 615.03 339.00 617.96 339.00 620.88 339.01 C 620.94 338.25 621.06 336.75 621.11 336.00 Z" />
<path fill="#303030" d=" M 622.92 339.31 C 627.61 338.82 632.35 338.83 637.04 339.34 C 639.86 341.16 643.06 342.23 646.39 342.66 C 653.03 345.06 657.82 350.45 662.90 355.08 C 662.90 355.48 662.89 356.29 662.88 356.70 C 663.66 356.85 665.23 357.15 666.01 357.29 C 666.00 360.10 665.99 362.90 665.99 365.71 C 666.75 365.86 668.26 366.15 669.01 366.29 C 669.00 372.10 669.00 377.90 669.01 383.71 C 668.26 383.85 666.75 384.14 666.00 384.28 C 665.99 387.08 666.00 389.89 666.01 392.69 C 665.30 392.84 663.90 393.13 663.20 393.27 C 662.92 394.77 662.67 396.28 662.43 397.80 C 660.31 399.97 658.13 402.08 655.90 404.14 C 655.43 404.29 654.49 404.59 654.02 404.74 C 645.14 406.24 637.22 411.97 627.97 411.28 C 622.60 410.38 617.57 407.71 612.03 407.75 C 610.39 407.69 608.77 407.67 607.15 407.66 C 604.25 404.12 601.04 400.85 597.53 397.92 C 597.29 396.36 597.05 394.81 596.82 393.27 C 596.12 393.12 594.70 392.83 593.99 392.69 C 593.99 389.89 594.00 387.09 594.01 384.30 C 593.25 384.15 591.74 383.85 590.99 383.70 C 590.99 377.90 590.99 372.10 590.99 366.30 C 591.74 366.15 593.25 365.85 594.01 365.71 C 594.00 362.90 593.99 360.10 593.99 357.31 C 594.77 357.15 596.34 356.84 597.12 356.69 C 597.11 356.29 597.10 355.48 597.10 355.08 C 602.16 350.44 606.97 345.10 613.58 342.65 C 616.91 342.28 620.14 341.23 622.92 339.31 Z" />
<path fill="#585858" d=" M 609.01 348.02 C 623.00 347.98 636.98 348.00 650.97 348.01 C 650.99 348.76 651.04 350.25 651.06 351.00 C 637.02 351.00 622.98 351.00 608.95 351.00 C 608.96 350.26 609.00 348.76 609.01 348.02 Z" />
<path fill="#000000" d=" M 606.00 351.00 C 606.74 351.00 608.21 351.00 608.95 351.00 C 622.98 351.00 637.02 351.00 651.06 351.00 C 651.80 351.00 653.26 351.00 653.99 351.00 C 654.00 351.75 654.00 353.24 654.01 353.99 C 638.00 354.01 622.00 354.01 606.00 353.99 C 606.00 353.24 606.00 351.75 606.00 351.00 Z" />
<path fill="#585858" d=" M 603.05 360.00 C 621.02 360.00 639.00 359.98 656.98 360.01 C 657.00 360.76 657.04 362.26 657.06 363.00 C 639.02 363.00 620.97 363.00 602.93 363.00 C 602.96 362.25 603.02 360.75 603.05 360.00 Z" />
<path fill="#000000" d=" M 600.01 363.00 C 600.74 363.00 602.20 363.00 602.93 363.00 C 620.97 363.00 639.02 363.00 657.06 363.00 C 657.80 363.00 659.27 363.00 660.00 363.00 C 660.00 363.75 660.00 365.25 660.00 365.99 C 640.00 366.00 619.99 366.01 599.99 365.99 C 600.00 365.24 600.01 363.75 600.01 363.00 Z" />
<path fill="#585858" d=" M 597.00 372.02 C 619.00 371.98 641.00 371.99 663.01 372.02 C 663.01 372.76 663.00 374.25 663.00 375.00 C 641.00 375.00 618.99 375.00 596.99 375.00 C 596.99 374.25 597.00 372.76 597.00 372.02 Z" />
<path fill="#000000" d=" M 596.99 375.00 C 618.99 375.00 641.00 375.00 663.00 375.00 C 663.00 375.75 663.00 377.24 663.00 377.99 C 641.00 378.01 619.00 378.01 597.00 377.99 C 597.00 377.24 596.99 375.75 596.99 375.00 Z" />
<path fill="#e10052" d=" M 243.00 378.00 C 245.00 378.00 247.00 378.00 249.00 378.00 C 249.00 378.75 249.00 380.25 249.00 381.00 C 247.00 381.00 245.00 381.00 243.00 381.00 C 243.00 380.25 243.00 378.75 243.00 378.00 Z" />
<path fill="#e10052" d=" M 90.00 381.00 C 90.75 381.00 92.25 381.00 93.00 381.00 C 93.00 384.00 93.00 387.00 93.00 390.00 C 92.25 390.00 90.75 390.00 90.00 390.00 C 90.00 387.00 90.00 384.00 90.00 381.00 Z" />
<path fill="#e10052" d=" M 198.00 381.00 C 198.75 381.00 200.25 381.00 201.00 381.00 C 201.00 384.00 201.00 387.00 201.00 390.00 C 200.25 390.00 198.75 390.00 198.00 390.00 C 198.00 387.00 198.00 384.00 198.00 381.00 Z" />
<path fill="#e10052" d=" M 240.00 381.00 C 240.75 381.00 242.25 381.00 243.00 381.00 C 243.00 383.00 243.00 385.00 243.00 387.00 C 242.25 387.00 240.75 387.00 240.00 387.00 C 240.00 385.00 240.00 383.00 240.00 381.00 Z" />
<path fill="#000000" d=" M 243.00 381.00 C 245.00 381.00 247.00 381.00 249.00 381.00 C 249.00 383.00 249.00 385.00 249.00 387.00 C 247.00 387.00 245.00 387.00 243.00 387.00 C 243.00 385.00 243.00 383.00 243.00 381.00 Z" />
<path fill="#e10052" d=" M 249.00 381.00 C 249.75 381.00 251.25 381.00 252.00 381.00 C 252.00 383.00 252.00 385.00 252.00 387.00 C 251.25 387.00 249.75 387.00 249.00 387.00 C 249.00 385.00 249.00 383.00 249.00 381.00 Z" />
<path fill="#e10052" d=" M 72.00 384.00 C 77.00 384.00 82.00 384.00 87.00 384.00 C 87.00 385.99 87.00 387.99 87.00 389.99 C 86.25 390.00 84.75 390.00 84.00 390.01 C 84.00 398.00 84.00 406.00 84.00 413.99 C 84.75 414.00 86.25 414.00 87.00 414.01 C 87.00 416.00 87.00 418.00 87.00 420.00 C 82.00 420.00 77.00 420.00 72.00 420.00 C 72.00 408.00 72.00 396.00 72.00 384.00 Z" />
<path fill="#e10052" d=" M 105.00 384.00 C 108.00 384.00 111.00 384.00 114.00 384.00 C 114.00 385.99 114.00 387.99 114.00 389.99 C 113.25 390.00 111.75 390.00 111.00 390.01 C 111.00 394.00 111.00 398.00 111.00 401.99 C 111.75 402.00 113.25 402.00 114.00 402.01 C 114.00 404.00 114.00 405.99 114.00 407.99 C 113.25 408.00 111.75 408.00 111.00 408.01 C 111.00 412.00 111.00 416.00 111.00 420.00 C 109.00 420.00 107.00 420.00 105.00 420.00 C 105.00 408.00 105.00 396.00 105.00 384.00 Z" />
<path fill="#e10052" d=" M 117.00 384.00 C 117.75 384.00 119.25 384.00 120.00 384.00 C 120.00 386.00 120.00 388.00 120.00 390.00 C 119.25 390.00 117.75 390.00 117.00 390.00 C 117.00 388.00 117.00 386.00 117.00 384.00 Z" />
<path fill="#e10052" d=" M 132.00 384.00 C 135.00 384.00 138.00 384.00 141.00 384.00 C 141.00 385.99 141.00 387.99 141.00 389.99 C 140.25 390.00 138.75 390.00 138.00 390.01 C 138.00 394.00 138.00 398.00 138.00 401.99 C 138.75 402.00 140.25 402.00 141.00 402.01 C 141.00 404.00 141.00 405.99 141.00 407.99 C 140.25 408.00 138.75 408.00 138.00 408.01 C 138.00 412.00 138.00 416.00 138.00 420.00 C 136.00 420.00 134.00 420.00 132.00 420.00 C 132.00 408.00 132.00 396.00 132.00 384.00 Z" />
<path fill="#e10052" d=" M 144.00 384.00 C 144.75 384.00 146.25 384.00 147.00 384.00 C 147.00 386.00 147.00 388.00 147.00 390.00 C 146.25 390.00 144.75 390.00 144.00 390.00 C 144.00 388.00 144.00 386.00 144.00 384.00 Z" />
<path fill="#e10052" d=" M 150.00 384.00 C 150.75 384.00 152.25 384.00 153.00 384.00 C 153.00 396.00 153.00 408.00 153.00 420.00 C 152.25 420.00 150.75 420.00 150.00 420.00 C 150.00 408.00 150.00 396.00 150.00 384.00 Z" />
<path fill="#e10052" d=" M 159.00 384.00 C 162.00 384.00 165.00 384.00 168.00 384.00 C 168.00 385.99 168.00 387.99 168.00 389.99 C 167.25 390.00 165.75 390.00 165.00 390.01 C 165.00 398.00 165.00 406.00 165.00 413.99 C 165.75 414.00 167.25 414.00 168.00 414.01 C 168.00 416.00 168.00 418.00 168.00 420.00 C 165.00 420.00 162.00 420.00 159.00 420.00 C 159.00 408.00 159.00 396.00 159.00 384.00 Z" />
<path fill="#e10052" d=" M 171.00 384.00 C 171.75 384.00 173.25 384.00 174.00 384.00 C 174.00 386.00 174.00 388.00 174.00 390.00 C 173.25 390.00 171.75 390.00 171.00 390.00 C 171.00 388.00 171.00 386.00 171.00 384.00 Z" />
<path fill="#e10052" d=" M 177.00 384.00 C 177.75 384.00 179.25 384.00 180.00 384.00 C 180.00 385.99 180.00 388.00 180.00 390.00 C 179.25 390.00 177.75 390.00 177.00 390.00 C 177.00 388.00 177.00 386.00 177.00 384.00 Z" />
<path fill="#e10052" d=" M 186.00 384.00 C 189.00 384.00 192.00 384.00 195.00 384.00 C 195.00 385.99 195.00 387.99 195.00 389.99 C 194.25 390.00 192.75 390.00 192.00 390.01 C 192.00 398.00 192.00 406.00 192.00 413.99 C 192.75 414.00 194.25 414.00 195.00 414.01 C 195.00 416.00 195.00 418.00 195.00 420.00 C 192.00 420.00 189.00 420.00 186.00 420.00 C 186.00 408.00 186.00 396.00 186.00 384.00 Z" />
<path fill="#e10052" d=" M 204.00 384.00 C 204.75 384.00 206.25 384.00 207.00 384.00 C 207.00 396.00 207.00 408.00 207.00 420.00 C 206.25 420.00 204.75 420.00 204.00 420.00 C 204.00 408.00 204.00 396.00 204.00 384.00 Z" />
<path fill="#e10052" d=" M 213.00 384.00 C 215.00 384.00 217.00 384.00 219.00 384.00 C 219.00 387.00 219.00 389.99 219.00 392.99 C 219.75 393.00 221.25 393.00 222.00 393.01 C 222.00 395.00 222.00 396.99 222.00 398.99 C 221.25 399.00 219.75 399.00 219.00 399.01 C 219.00 406.00 219.00 413.00 219.00 420.00 C 217.00 420.00 215.00 420.00 213.00 420.00 C 213.00 408.00 213.00 396.00 213.00 384.00 Z" />
<path fill="#e10052" d=" M 231.00 384.00 C 231.75 384.00 233.25 384.00 234.00 384.00 C 234.00 401.00 234.00 418.00 234.00 435.00 C 233.25 435.00 231.75 435.00 231.00 435.00 C 231.00 418.00 231.00 401.00 231.00 384.00 Z" />
<path fill="#ffffff" d=" M 270.00 384.00 C 272.00 384.00 274.00 384.00 276.00 384.00 C 276.00 384.75 276.00 386.25 276.00 387.00 C 275.25 387.00 273.75 387.00 273.00 387.00 C 273.00 389.00 273.00 391.00 273.00 393.00 C 273.75 393.00 275.25 393.00 276.00 393.00 C 276.00 393.75 276.00 395.25 276.00 396.00 C 275.25 396.00 273.75 396.00 273.00 396.00 C 273.00 399.00 273.00 402.00 273.00 405.00 C 273.75 405.00 275.25 405.00 276.00 405.00 C 276.00 405.75 276.00 407.25 276.00 408.00 C 274.00 408.00 272.00 408.00 270.00 408.00 C 270.00 407.25 270.00 405.75 270.00 405.00 C 269.25 405.00 267.75 405.00 267.00 405.00 C 267.00 402.00 267.00 399.00 267.00 396.00 C 267.75 396.00 269.25 396.00 270.00 396.00 C 270.00 395.25 270.00 393.75 270.00 393.00 C 269.25 393.00 267.75 393.00 267.00 393.00 C 267.00 391.00 267.00 389.00 267.00 387.00 C 267.75 387.00 269.25 387.00 270.00 387.00 C 270.00 386.25 270.00 384.75 270.00 384.00 Z" />
<path fill="#ffffff" d=" M 291.00 384.00 C 294.00 384.00 297.00 384.00 300.00 384.00 C 300.00 384.75 300.00 386.25 300.00 387.00 C 299.25 387.00 297.75 387.00 297.00 387.00 C 297.00 389.00 297.00 391.00 297.00 393.00 C 297.75 393.00 299.25 393.00 300.00 393.00 C 300.00 393.75 300.00 395.25 300.00 396.00 C 299.25 396.00 297.75 396.00 297.00 396.00 C 297.00 399.00 297.00 402.00 297.00 405.00 C 297.75 405.00 299.25 405.00 300.00 405.00 C 300.00 405.75 300.00 407.25 300.00 408.00 C 297.00 408.00 294.00 408.00 291.00 408.00 C 291.00 400.00 291.00 392.00 291.00 384.00 Z" />
<path fill="#ffffff" d=" M 306.00 384.00 C 308.00 384.00 310.00 384.00 312.00 384.00 C 312.00 392.00 312.00 400.00 312.00 408.00 C 310.00 408.00 308.00 408.00 306.00 408.00 C 306.00 400.00 306.00 392.00 306.00 384.00 Z" />
<path fill="#ffffff" d=" M 315.00 384.00 C 319.00 384.00 323.00 384.00 327.00 384.00 C 327.00 384.75 327.00 386.25 327.00 387.00 C 326.25 387.00 324.75 387.00 324.00 387.00 C 324.00 394.00 324.00 401.00 324.00 408.00 C 322.00 408.00 320.00 408.00 318.00 408.00 C 318.00 401.00 318.00 394.00 318.00 387.00 C 317.25 387.00 315.75 387.00 315.00 387.00 C 315.00 386.25 315.00 384.75 315.00 384.00 Z" />
<path fill="#ffffff" d=" M 339.00 384.00 C 342.00 384.00 345.00 384.00 348.00 384.00 C 348.00 384.75 348.00 386.25 348.00 387.00 C 347.25 387.00 345.75 387.00 345.00 387.00 C 345.00 389.00 345.00 391.00 345.00 393.00 C 345.75 393.00 347.25 393.00 348.00 393.00 C 348.00 393.75 348.00 395.25 348.00 396.00 C 345.00 396.00 342.00 396.00 339.00 396.00 C 339.00 392.00 339.00 388.00 339.00 384.00 Z" />
<path fill="#ffffff" d=" M 354.00 384.00 C 358.00 384.00 362.00 384.00 366.00 384.00 C 366.00 392.00 366.00 400.00 366.00 408.00 C 362.00 408.00 358.00 408.00 354.00 408.00 C 354.00 400.00 354.00 392.00 354.00 384.00 Z" />
<path fill="#ffffff" d=" M 369.00 384.00 C 371.00 384.00 373.00 384.00 375.00 384.00 C 375.00 391.00 375.00 398.00 375.00 405.00 C 375.75 405.00 377.25 405.00 378.00 405.00 C 378.00 398.00 378.00 391.00 378.00 384.00 C 378.75 384.00 380.25 384.00 381.00 384.00 C 381.00 392.00 381.00 400.00 381.00 408.00 C 377.00 408.00 373.00 408.00 369.00 408.00 C 369.00 400.00 369.00 392.00 369.00 384.00 Z" />
<path fill="#ffffff" d=" M 384.00 384.00 C 386.00 384.00 388.00 384.00 390.00 384.00 C 390.00 384.75 390.00 386.25 390.00 387.00 C 390.75 387.00 392.25 387.00 393.00 387.00 C 393.00 387.75 393.00 389.25 393.00 390.00 C 392.25 390.00 390.75 390.00 390.00 390.00 C 390.00 396.00 390.00 402.00 390.00 408.00 C 388.00 408.00 386.00 408.00 384.00 408.00 C 384.00 400.00 384.00 392.00 384.00 384.00 Z" />
<path fill="#ffffff" d=" M 396.00 384.00 C 396.75 384.00 398.25 384.00 399.00 384.00 C 399.00 392.00 399.00 400.00 399.00 408.00 C 398.25 408.00 396.75 408.00 396.00 408.00 C 396.00 403.00 396.00 398.00 396.00 393.00 C 395.25 393.00 393.75 393.00 393.00 393.00 C 393.00 392.25 393.00 390.75 393.00 390.00 C 393.75 390.00 395.25 390.00 396.00 390.00 C 396.00 388.00 396.00 386.00 396.00 384.00 Z" />
<path fill="#ffffff" d=" M 402.00 384.00 C 405.00 384.00 408.00 384.00 411.00 384.00 C 411.00 384.75 411.00 386.25 411.00 387.00 C 410.25 387.00 408.75 387.00 408.00 387.00 C 408.00 393.00 408.00 399.00 408.00 405.00 C 408.75 405.00 410.25 405.00 411.00 405.00 C 411.00 405.75 411.00 407.25 411.00 408.00 C 408.00 408.00 405.00 408.00 402.00 408.00 C 402.00 400.00 402.00 392.00 402.00 384.00 Z" />
<path fill="#ffffff" d=" M 426.00 384.00 C 430.00 384.00 434.00 384.00 438.00 384.00 C 438.00 384.75 438.00 386.25 438.00 387.00 C 436.00 387.00 434.00 387.00 432.00 387.00 C 432.00 393.00 432.00 399.00 432.00 405.00 C 432.75 405.00 434.25 405.00 435.00 405.00 C 435.00 403.00 435.00 401.00 435.00 399.00 C 435.75 399.00 437.25 399.00 438.00 399.00 C 438.00 402.00 438.00 405.00 438.00 408.00 C 434.00 408.00 430.00 408.00 426.00 408.00 C 426.00 400.00 426.00 392.00 426.00 384.00 Z" />
<path fill="#ffffff" d=" M 441.00 384.00 C 445.00 384.00 449.00 384.00 453.00 384.00 C 453.00 384.75 453.00 386.25 453.00 387.00 C 450.99 387.00 448.99 387.00 447.00 387.00 C 446.99 389.00 447.00 391.00 447.00 393.00 C 449.00 393.00 450.99 393.00 453.00 393.00 C 453.00 393.75 453.00 395.25 453.00 396.00 C 450.99 396.00 449.00 396.00 447.00 396.00 C 447.00 399.00 447.00 402.00 447.00 405.00 C 449.00 405.00 451.00 405.00 453.00 405.00 C 453.00 405.75 453.00 407.25 453.00 408.00 C 449.00 408.00 445.00 408.00 441.00 408.00 C 441.00 400.00 441.00 392.00 441.00 384.00 Z" />
<path fill="#ffffff" d=" M 456.00 384.00 C 457.99 384.00 459.99 384.00 462.00 384.00 C 462.00 384.75 462.00 386.25 462.00 387.00 C 462.75 387.00 464.25 387.00 465.00 387.00 C 465.00 387.75 465.00 389.25 465.00 390.00 C 464.25 390.00 462.75 390.00 462.00 390.00 C 462.00 396.00 462.00 402.00 462.00 408.00 C 459.99 408.00 457.99 408.00 456.00 408.00 C 456.00 400.00 456.00 392.00 456.00 384.00 Z" />
<path fill="#ffffff" d=" M 468.00 384.00 C 468.75 384.00 470.25 384.00 471.00 384.00 C 471.00 392.00 471.00 400.00 471.00 408.00 C 470.25 408.00 468.75 408.00 468.00 408.00 C 468.00 403.00 468.00 398.00 468.00 393.00 C 467.25 393.00 465.75 393.00 465.00 393.00 C 465.00 392.25 465.00 390.75 465.00 390.00 C 465.75 390.00 467.25 390.00 468.00 390.00 C 467.99 388.00 467.99 386.00 468.00 384.00 Z" />
<path fill="#ffffff" d=" M 474.00 384.00 C 478.00 384.00 482.00 384.00 486.00 384.00 C 486.00 384.75 486.00 386.25 486.00 387.00 C 483.99 387.00 481.99 387.00 480.00 387.00 C 479.99 389.00 479.99 391.00 480.00 393.00 C 481.99 393.00 483.99 393.00 486.00 393.00 C 486.00 393.75 486.00 395.25 486.00 396.00 C 483.99 396.00 481.99 396.00 480.00 396.00 C 480.00 399.00 480.00 402.00 480.00 405.00 C 481.99 405.00 483.99 405.00 486.00 405.00 C 486.00 405.75 486.00 407.25 486.00 408.00 C 482.00 408.00 478.00 408.00 474.00 408.00 C 474.00 400.00 474.00 392.00 474.00 384.00 Z" />
<path fill="#ffffff" d=" M 489.00 384.00 C 492.00 384.00 495.00 384.00 498.00 384.00 C 498.00 384.75 498.00 386.25 498.00 387.00 C 497.25 387.00 495.75 387.00 495.00 387.00 C 494.99 389.00 494.99 391.00 495.00 393.00 C 495.75 393.00 497.25 393.00 498.00 393.00 C 498.00 393.75 498.00 395.25 498.00 396.00 C 497.25 396.00 495.75 396.00 495.00 396.00 C 495.00 400.00 495.00 404.00 495.00 408.00 C 492.99 408.00 490.99 408.00 489.00 408.00 C 489.00 400.00 489.00 392.00 489.00 384.00 Z" />
<path fill="#ffffff" d=" M 504.00 384.00 C 508.00 384.00 512.00 384.00 516.00 384.00 C 516.00 392.00 516.00 400.00 516.00 408.00 C 515.25 408.00 513.75 408.00 513.00 408.00 C 513.00 404.00 513.00 400.00 513.00 396.00 C 512.25 396.00 510.75 396.00 510.00 396.00 C 510.00 400.00 510.00 404.00 510.00 408.00 C 507.99 408.00 505.99 408.00 504.00 408.00 C 504.00 400.00 504.00 392.00 504.00 384.00 Z" />
<path fill="#ffffff" d=" M 519.00 384.00 C 523.00 384.00 527.00 384.00 531.00 384.00 C 531.00 384.75 531.00 386.25 531.00 387.00 C 530.25 387.00 528.75 387.00 528.00 387.00 C 528.00 394.00 528.00 401.00 528.00 408.00 C 525.99 408.00 523.99 408.00 522.00 408.00 C 522.00 401.00 522.00 394.00 522.00 387.00 C 521.25 387.00 519.75 387.00 519.00 387.00 C 519.00 386.25 519.00 384.75 519.00 384.00 Z" />
<path fill="#ffffff" d=" M 534.00 384.00 C 538.00 384.00 542.00 384.00 546.00 384.00 C 546.00 392.00 546.00 400.00 546.00 408.00 C 542.00 408.00 538.00 408.00 534.00 408.00 C 534.00 400.00 534.00 392.00 534.00 384.00 Z" />
<path fill="#ffffff" d=" M 549.00 384.00 C 552.00 384.00 555.00 384.00 558.00 384.00 C 558.00 384.75 558.00 386.25 558.00 387.00 C 557.25 387.00 555.75 387.00 555.00 387.00 C 554.99 389.00 554.99 391.00 555.00 393.00 C 555.75 393.00 557.25 393.00 558.00 393.00 C 558.00 393.75 558.00 395.25 558.00 396.00 C 557.25 396.00 555.75 396.00 555.00 396.00 C 555.00 400.00 555.00 404.00 555.00 408.00 C 552.99 408.00 550.99 408.00 549.00 408.00 C 549.00 400.00 549.00 392.00 549.00 384.00 Z" />
<path fill="#585858" d=" M 599.99 384.02 C 619.99 383.99 640.00 383.98 660.00 384.02 C 660.00 384.76 660.00 386.25 660.00 386.99 C 659.26 386.99 657.76 386.99 657.01 386.99 C 639.00 387.01 620.99 387.00 602.98 387.00 C 602.24 387.00 600.76 387.00 600.02 387.00 C 600.01 386.25 599.99 384.76 599.99 384.02 Z" />
<path fill="#e10052" d=" M 96.00 387.00 C 96.75 387.00 98.25 387.00 99.00 387.00 C 99.00 397.00 99.00 407.00 99.00 417.00 C 98.25 417.00 96.75 417.00 96.00 417.00 C 96.00 407.00 96.00 397.00 96.00 387.00 Z" />
<path fill="#e10052" d=" M 123.00 387.00 C 123.75 387.00 125.25 387.00 126.00 387.00 C 126.00 392.00 126.00 397.00 126.00 402.00 C 125.25 402.00 123.75 402.00 123.00 402.00 C 123.00 397.00 123.00 392.00 123.00 387.00 Z" />
<path fill="#e10052" d=" M 243.00 387.00 C 245.00 387.00 247.00 387.00 249.00 387.00 C 249.00 387.75 249.00 389.25 249.00 390.00 C 247.00 390.00 245.00 390.00 243.00 390.00 C 243.00 389.25 243.00 387.75 243.00 387.00 Z" />
<path fill="#000000" d=" M 273.00 387.00 C 273.75 387.00 275.25 387.00 276.00 387.00 C 276.00 389.00 276.00 391.00 276.00 393.00 C 275.25 393.00 273.75 393.00 273.00 393.00 C 273.00 391.00 273.00 389.00 273.00 387.00 Z" />
<path fill="#ffffff" d=" M 276.00 387.00 C 276.75 387.00 278.25 387.00 279.00 387.00 C 279.00 389.00 279.00 391.00 279.00 393.00 C 278.25 393.00 276.75 393.00 276.00 393.00 C 276.00 391.00 276.00 389.00 276.00 387.00 Z" />
<path fill="#000000" d=" M 297.00 387.00 C 297.75 387.00 299.25 387.00 300.00 387.00 C 300.00 389.00 300.00 391.00 300.00 393.00 C 299.25 393.00 297.75 393.00 297.00 393.00 C 297.00 391.00 297.00 389.00 297.00 387.00 Z" />
<path fill="#ffffff" d=" M 300.00 387.00 C 300.75 387.00 302.25 387.00 303.00 387.00 C 303.00 389.00 303.00 391.00 303.00 393.00 C 302.25 393.00 300.75 393.00 300.00 393.00 C 300.00 391.00 300.00 389.00 300.00 387.00 Z" />
<path fill="#ffffff" d=" M 348.00 387.00 C 348.75 387.00 350.25 387.00 351.00 387.00 C 351.00 387.75 351.00 389.25 351.00 390.00 C 350.25 390.00 348.75 390.00 348.00 390.00 C 348.00 389.25 348.00 387.75 348.00 387.00 Z" />
<path fill="#000000" d=" M 360.00 387.00 C 360.75 387.00 362.25 387.00 363.00 387.00 C 363.00 393.00 363.00 399.00 363.00 405.00 C 362.25 405.00 360.75 405.00 360.00 405.00 C 360.00 399.00 360.00 393.00 360.00 387.00 Z" />
<path fill="#000000" d=" M 408.00 387.00 C 408.75 387.00 410.25 387.00 411.00 387.00 C 411.00 393.00 411.00 399.00 411.00 405.00 C 410.25 405.00 408.75 405.00 408.00 405.00 C 408.00 399.00 408.00 393.00 408.00 387.00 Z" />
<path fill="#ffffff" d=" M 411.00 387.00 C 411.75 387.00 413.25 387.00 414.00 387.00 C 414.00 393.00 414.00 399.00 414.00 405.00 C 413.25 405.00 411.75 405.00 411.00 405.00 C 411.00 399.00 411.00 393.00 411.00 387.00 Z" />
<path fill="#000000" d=" M 495.00 387.00 C 495.75 387.00 497.25 387.00 498.00 387.00 C 497.99 389.00 497.99 391.00 498.00 393.00 C 497.25 393.00 495.75 393.00 495.00 393.00 C 494.99 391.00 494.99 389.00 495.00 387.00 Z" />
<path fill="#ffffff" d=" M 498.00 387.00 C 498.75 387.00 500.25 387.00 501.00 387.00 C 500.99 389.00 500.99 391.00 501.00 393.00 C 500.25 393.00 498.75 393.00 498.00 393.00 C 497.99 391.00 497.99 389.00 498.00 387.00 Z" />
<path fill="#000000" d=" M 510.00 387.00 C 510.75 387.00 512.25 387.00 513.00 387.00 C 512.99 389.00 512.99 391.00 513.00 393.00 C 512.25 393.00 510.75 393.00 510.00 393.00 C 509.99 390.99 509.99 388.99 510.00 387.00 Z" />
<path fill="#000000" d=" M 540.00 387.00 C 540.75 387.00 542.25 387.00 543.00 387.00 C 543.00 393.00 543.00 399.00 543.00 405.00 C 542.25 405.00 540.75 405.00 540.00 405.00 C 540.00 399.00 540.00 393.00 540.00 387.00 Z" />
<path fill="#000000" d=" M 555.00 387.00 C 555.75 387.00 557.25 387.00 558.00 387.00 C 557.99 389.00 557.99 391.00 558.00 393.00 C 557.25 393.00 555.75 393.00 555.00 393.00 C 554.99 391.00 554.99 389.00 555.00 387.00 Z" />
<path fill="#ffffff" d=" M 558.00 387.00 C 558.75 387.00 560.25 387.00 561.00 387.00 C 560.99 389.00 560.99 391.00 561.00 393.00 C 560.25 393.00 558.75 393.00 558.00 393.00 C 557.99 391.00 557.99 389.00 558.00 387.00 Z" />
<path fill="#000000" d=" M 602.98 387.00 C 620.99 387.00 639.00 387.01 657.01 386.99 C 657.00 387.74 657.00 389.24 657.00 389.99 C 639.00 390.00 621.00 390.01 603.00 389.99 C 603.00 389.24 602.98 387.75 602.98 387.00 Z" />
<path fill="#ffffff" d=" M 282.00 393.00 C 284.00 393.00 286.00 393.00 288.00 393.00 C 288.00 393.75 288.00 395.25 288.00 396.00 C 286.00 396.00 284.00 396.00 282.00 396.00 C 282.00 395.25 282.00 393.75 282.00 393.00 Z" />
<path fill="#3e3e3e" d=" M 675.51 393.35 C 676.00 393.34 676.98 393.33 677.47 393.33 C 677.66 399.20 677.93 405.08 678.04 410.97 C 677.27 410.96 675.73 410.94 674.97 410.93 C 675.08 405.06 675.34 399.21 675.51 393.35 Z" />
<path fill="#000000" d=" M 273.00 396.00 C 273.75 396.00 275.25 396.00 276.00 396.00 C 276.00 399.00 276.00 402.00 276.00 405.00 C 275.25 405.00 273.75 405.00 273.00 405.00 C 273.00 402.00 273.00 399.00 273.00 396.00 Z" />
<path fill="#ffffff" d=" M 276.00 396.00 C 276.75 396.00 278.25 396.00 279.00 396.00 C 279.00 399.00 279.00 402.00 279.00 405.00 C 278.25 405.00 276.75 405.00 276.00 405.00 C 276.00 402.00 276.00 399.00 276.00 396.00 Z" />
<path fill="#000000" d=" M 297.00 396.00 C 297.75 396.00 299.25 396.00 300.00 396.00 C 300.00 399.00 300.00 402.00 300.00 405.00 C 299.25 405.00 297.75 405.00 297.00 405.00 C 297.00 402.00 297.00 399.00 297.00 396.00 Z" />
<path fill="#ffffff" d=" M 300.00 396.00 C 300.75 396.00 302.25 396.00 303.00 396.00 C 303.00 399.00 303.00 402.00 303.00 405.00 C 302.25 405.00 300.75 405.00 300.00 405.00 C 300.00 402.00 300.00 399.00 300.00 396.00 Z" />
<path fill="#ffffff" d=" M 348.00 396.00 C 348.75 396.00 350.25 396.00 351.00 396.00 C 351.00 399.00 351.00 402.00 351.00 405.00 C 350.25 405.00 348.75 405.00 348.00 405.00 C 348.00 402.00 348.00 399.00 348.00 396.00 Z" />
<path fill="#ffffff" d=" M 498.00 396.00 C 498.75 396.00 500.25 396.00 501.00 396.00 C 501.00 400.00 501.00 404.00 501.00 408.00 C 500.25 408.00 498.75 408.00 498.00 408.00 C 498.00 404.00 498.00 400.00 498.00 396.00 Z" />
<path fill="#ffffff" d=" M 558.00 396.00 C 558.75 396.00 560.25 396.00 561.00 396.00 C 561.00 400.00 561.00 404.00 561.00 408.00 C 560.25 408.00 558.75 408.00 558.00 408.00 C 558.00 404.00 558.00 400.00 558.00 396.00 Z" />
<path fill="#585858" d=" M 605.99 396.02 C 622.00 395.99 638.00 395.98 654.01 396.02 C 654.01 396.76 654.00 398.25 653.99 398.99 C 653.25 398.99 651.77 399.00 651.02 399.00 C 637.01 399.00 623.00 399.01 608.98 398.99 C 608.24 398.99 606.74 398.99 606.00 398.99 C 606.00 398.25 605.99 396.76 605.99 396.02 Z" />
<path fill="#e10052" d=" M 225.00 399.00 C 225.75 399.00 227.25 399.00 228.00 399.00 C 228.00 401.00 228.00 403.00 228.00 405.00 C 227.25 405.00 225.75 405.00 225.00 405.00 C 225.00 403.00 225.00 401.00 225.00 399.00 Z" />
<path fill="#000000" d=" M 608.98 398.99 C 623.00 399.01 637.01 399.00 651.02 399.00 C 651.02 399.74 651.01 401.24 651.00 401.99 C 637.00 402.01 623.00 402.01 609.00 401.99 C 609.00 401.24 608.99 399.74 608.98 398.99 Z" />
<path fill="#e10052" d=" M 117.00 402.00 C 117.75 402.00 119.25 402.00 120.00 402.00 C 120.00 404.00 120.00 406.00 120.00 408.00 C 119.25 408.00 117.75 408.00 117.00 408.00 C 117.00 406.00 117.00 404.00 117.00 402.00 Z" />
<path fill="#e10052" d=" M 144.00 402.00 C 144.75 402.00 146.25 402.00 147.00 402.00 C 147.00 404.00 147.00 406.00 147.00 408.00 C 146.25 408.00 144.75 408.00 144.00 408.00 C 144.00 406.00 144.00 404.00 144.00 402.00 Z" />
<path fill="#e10052" d=" M 171.00 402.00 C 171.75 402.00 173.25 402.00 174.00 402.00 C 174.00 404.00 174.00 406.00 174.00 408.00 C 173.25 408.00 171.75 408.00 171.00 408.00 C 171.00 406.00 171.00 403.99 171.00 402.00 Z" />
<path fill="#e10052" d=" M 177.00 402.00 C 177.75 402.00 179.25 402.00 180.00 402.00 C 180.00 408.00 180.00 414.00 180.00 420.00 C 179.25 420.00 177.75 420.00 177.00 420.00 C 177.00 414.00 177.00 408.00 177.00 402.00 Z" />
<path fill="#ffffff" d=" M 339.00 402.00 C 341.00 402.00 343.00 402.00 345.00 402.00 C 345.00 402.75 345.00 404.25 345.00 405.00 C 345.75 405.00 347.25 405.00 348.00 405.00 C 348.00 405.75 348.00 407.25 348.00 408.00 C 345.00 408.00 342.00 408.00 339.00 408.00 C 339.00 406.00 339.00 404.00 339.00 402.00 Z" />
<path fill="#212121" d=" M 627.97 411.28 C 637.22 411.97 645.14 406.24 654.02 404.74 C 654.02 405.55 654.01 407.17 654.01 407.98 C 652.06 407.99 650.12 408.01 648.18 408.03 C 648.10 408.77 647.95 410.26 647.87 411.00 C 644.98 410.99 642.09 411.00 639.21 411.00 C 639.12 411.75 638.95 413.26 638.86 414.01 C 632.95 413.99 627.03 413.99 621.12 414.02 C 621.04 413.26 620.87 411.75 620.79 411.00 C 617.85 411.00 614.92 410.99 611.99 410.99 C 612.00 410.18 612.02 408.56 612.03 407.75 C 617.57 407.71 622.60 410.38 627.97 411.28 Z" />
<path fill="#e10052" d=" M 123.00 408.00 C 123.75 408.00 125.25 408.00 126.00 408.00 C 126.00 418.00 126.00 428.00 126.00 438.00 C 125.25 438.00 123.75 438.00 123.00 438.00 C 123.00 428.00 123.00 418.00 123.00 408.00 Z" />
<path fill="#000000" d=" M 648.18 408.03 C 650.12 408.01 652.06 407.99 654.01 407.98 C 654.00 408.74 653.99 410.25 653.98 411.00 C 651.94 410.99 649.90 410.99 647.87 411.00 C 647.95 410.26 648.10 408.77 648.18 408.03 Z" />
<path fill="#000000" d=" M 611.99 410.99 C 614.92 410.99 617.85 411.00 620.79 411.00 C 620.87 411.75 621.04 413.26 621.12 414.02 C 618.08 414.00 615.03 413.99 612.00 413.98 C 612.00 413.23 611.99 411.74 611.99 410.99 Z" />
<path fill="#000000" d=" M 639.21 411.00 C 642.09 411.00 644.98 410.99 647.87 411.00 C 647.91 411.74 648.00 413.24 648.04 413.98 C 644.98 413.99 641.92 414.00 638.86 414.01 C 638.95 413.26 639.12 411.75 639.21 411.00 Z" />
<path fill="#4b4b4b" d=" M 674.97 410.93 C 675.73 410.94 677.27 410.96 678.04 410.97 C 677.99 415.97 678.00 420.98 677.99 425.99 C 677.24 426.00 675.75 426.01 675.00 426.01 C 674.99 420.98 675.01 415.95 674.97 410.93 Z" />
<path fill="#e10052" d=" M 90.00 414.00 C 90.75 414.00 92.25 414.00 93.00 414.00 C 93.00 416.00 93.00 418.00 93.00 420.00 C 92.25 420.00 90.75 420.00 90.00 420.00 C 90.00 418.00 90.00 415.99 90.00 414.00 Z" />
<path fill="#e10052" d=" M 171.00 414.00 C 171.75 414.00 173.25 414.00 174.00 414.00 C 174.00 416.00 174.00 418.00 174.00 420.00 C 173.25 420.00 171.75 420.00 171.00 420.00 C 171.00 418.00 171.00 416.00 171.00 414.00 Z" />
<path fill="#e10052" d=" M 198.00 414.00 C 198.75 414.00 200.25 414.00 201.00 414.00 C 201.00 422.00 201.00 430.00 201.00 438.00 C 200.25 438.00 198.75 438.00 198.00 438.00 C 198.00 430.00 198.00 422.00 198.00 414.00 Z" />
<path fill="#e10052" d=" M 267.00 414.00 C 365.00 414.00 463.00 414.00 561.00 414.00 C 561.00 414.75 561.00 416.25 561.00 417.00 C 463.00 417.00 365.00 417.00 267.00 417.00 C 267.00 416.25 267.00 414.75 267.00 414.00 Z" />
<path fill="#000000" d=" M 621.12 414.02 C 627.03 413.99 632.95 413.99 638.86 414.01 C 638.91 414.75 639.01 416.23 639.06 416.97 C 633.03 417.02 626.99 417.02 620.96 416.97 C 621.00 416.23 621.08 414.75 621.12 414.02 Z" />
<path fill="#ffffff" d=" M 267.00 423.00 C 267.75 423.00 269.25 423.00 270.00 423.00 C 270.00 423.75 270.00 425.25 270.00 426.00 C 270.75 426.00 272.25 426.00 273.00 426.00 C 273.00 425.25 273.00 423.75 273.00 423.00 C 273.75 423.00 275.25 423.00 276.00 423.00 C 276.00 427.00 276.00 431.00 276.00 435.00 C 275.25 435.00 273.75 435.00 273.00 435.00 C 273.00 432.99 273.00 431.00 273.00 429.00 C 272.25 429.00 270.75 429.00 270.00 429.00 C 270.00 431.00 270.00 433.00 270.00 435.00 C 269.25 435.00 267.75 435.00 267.00 435.00 C 267.00 431.00 267.00 427.00 267.00 423.00 Z" />
<path fill="#ffffff" d=" M 279.00 423.00 C 282.00 423.00 285.00 423.00 288.00 423.00 C 288.00 423.75 288.00 425.25 288.00 426.00 C 286.00 426.00 284.00 426.00 282.00 426.00 C 282.00 428.00 282.00 430.00 282.00 432.00 C 284.00 432.00 286.00 432.00 288.00 432.00 C 288.00 432.75 288.00 434.25 288.00 435.00 C 285.00 435.00 282.00 435.00 279.00 435.00 C 279.00 431.00 279.00 427.00 279.00 423.00 Z" />
<path fill="#ffffff" d=" M 303.00 423.00 C 303.75 423.00 305.25 423.00 306.00 423.00 C 306.00 427.00 306.00 431.00 306.00 435.00 C 305.25 435.00 303.75 435.00 303.00 435.00 C 303.00 431.00 303.00 427.00 303.00 423.00 Z" />
<path fill="#ffffff" d=" M 309.00 423.00 C 312.00 423.00 315.00 423.00 318.00 423.00 C 318.00 423.75 318.00 425.25 318.00 426.00 C 316.00 426.00 314.00 426.00 312.00 426.00 C 312.00 426.75 312.00 428.25 312.00 429.00 C 314.00 429.00 316.00 429.00 318.00 429.00 C 318.00 431.00 318.00 432.99 318.00 435.00 C 315.00 435.00 312.00 435.00 309.00 435.00 C 309.00 431.00 309.00 427.00 309.00 423.00 Z" />
<path fill="#ffffff" d=" M 321.00 423.00 C 321.75 423.00 323.25 423.00 324.00 423.00 C 324.00 423.75 324.00 425.25 324.00 426.00 C 323.25 426.00 321.75 426.00 321.00 426.00 C 321.00 425.25 321.00 423.75 321.00 423.00 Z" />
<path fill="#ffffff" d=" M 522.00 423.00 C 522.75 423.00 524.25 423.00 525.00 423.00 C 525.00 426.00 525.00 429.00 525.00 432.00 C 524.25 432.00 522.75 432.00 522.00 432.00 C 522.00 429.00 522.00 426.00 522.00 423.00 Z" />
<path fill="#ffffff" d=" M 528.00 423.00 C 528.75 423.00 530.25 423.00 531.00 423.00 C 531.00 426.00 531.00 429.00 531.00 432.00 C 530.25 432.00 528.75 432.00 528.00 432.00 C 528.00 429.00 528.00 426.00 528.00 423.00 Z" />
<path fill="#ffffff" d=" M 540.00 423.00 C 541.99 423.00 543.99 423.00 546.00 423.00 C 546.00 427.00 546.00 431.00 546.00 435.00 C 545.25 435.00 543.75 435.00 543.00 435.00 C 543.00 432.00 543.00 429.00 543.00 426.00 C 542.25 426.00 540.75 426.00 540.00 426.00 C 540.00 425.25 540.00 423.75 540.00 423.00 Z" />
<path fill="#ffffff" d=" M 555.00 423.00 C 556.99 423.00 558.99 423.00 561.00 423.00 C 561.00 427.00 561.00 431.00 561.00 435.00 C 560.25 435.00 558.75 435.00 558.00 435.00 C 558.00 432.00 558.00 429.00 558.00 426.00 C 557.25 426.00 555.75 426.00 555.00 426.00 C 555.00 425.25 555.00 423.75 555.00 423.00 Z" />
<path fill="#e10052" d=" M 72.00 426.00 C 77.00 426.00 82.00 426.00 87.00 426.00 C 87.00 429.00 87.00 432.00 87.00 435.00 C 82.00 435.00 77.00 435.00 72.00 435.00 C 72.00 432.00 72.00 429.00 72.00 426.00 Z" />
<path fill="#e10052" d=" M 90.00 426.00 C 90.75 426.00 92.25 426.00 93.00 426.00 C 93.00 430.00 93.00 434.00 93.00 438.00 C 92.25 438.00 90.75 438.00 90.00 438.00 C 90.00 434.00 90.00 430.00 90.00 426.00 Z" />
<path fill="#e10052" d=" M 96.00 426.00 C 96.75 426.00 98.25 426.00 99.00 426.00 C 99.00 429.00 99.00 432.00 99.00 435.00 C 98.25 435.00 96.75 435.00 96.00 435.00 C 96.00 432.00 96.00 429.00 96.00 426.00 Z" />
<path fill="#e10052" d=" M 105.00 426.00 C 107.00 426.00 109.00 426.00 111.00 426.00 C 111.00 429.00 111.00 432.00 111.00 435.00 C 109.00 435.00 107.00 435.00 105.00 435.00 C 105.00 432.00 105.00 429.00 105.00 426.00 Z" />
<path fill="#e10052" d=" M 117.00 426.00 C 117.75 426.00 119.25 426.00 120.00 426.00 C 120.00 429.00 120.00 432.00 120.00 435.00 C 119.25 435.00 117.75 435.00 117.00 435.00 C 117.00 432.00 117.00 429.00 117.00 426.00 Z" />
<path fill="#e10052" d=" M 132.00 426.00 C 134.00 426.00 136.00 426.00 138.00 426.00 C 138.00 429.00 138.00 432.00 138.00 435.00 C 136.00 435.00 134.00 434.99 132.00 435.00 C 132.00 432.00 132.00 429.00 132.00 426.00 Z" />
<path fill="#e10052" d=" M 144.00 426.00 C 144.75 426.00 146.25 426.00 147.00 426.00 C 147.00 429.00 147.00 432.00 147.00 435.00 C 146.25 435.00 144.75 435.00 144.00 435.00 C 144.00 432.00 144.00 429.00 144.00 426.00 Z" />
<path fill="#e10052" d=" M 150.00 426.00 C 150.75 426.00 152.25 426.00 153.00 426.00 C 153.00 430.00 153.00 434.00 153.00 438.00 C 152.25 438.00 150.75 438.00 150.00 438.00 C 150.00 434.00 150.00 430.00 150.00 426.00 Z" />
<path fill="#e10052" d=" M 159.00 426.00 C 162.00 426.00 165.00 426.00 168.00 426.00 C 168.00 429.00 168.00 432.00 168.00 435.00 C 165.00 435.00 162.00 435.00 159.00 435.00 C 159.00 432.00 159.00 429.00 159.00 426.00 Z" />
<path fill="#e10052" d=" M 171.00 426.00 C 171.75 426.00 173.25 426.00 174.00 426.00 C 174.00 429.00 174.00 432.00 174.00 435.00 C 173.25 435.00 171.75 435.00 171.00 435.00 C 171.00 432.00 171.00 429.00 171.00 426.00 Z" />
<path fill="#e10052" d=" M 177.00 426.00 C 177.75 426.00 179.25 426.00 180.00 426.00 C 180.00 429.00 180.00 432.00 180.00 435.00 C 179.25 435.00 177.75 435.00 177.00 435.00 C 177.00 432.00 177.00 429.00 177.00 426.00 Z" />
<path fill="#e10052" d=" M 186.00 426.00 C 189.00 426.00 192.00 426.00 195.00 426.00 C 195.00 429.00 195.00 432.00 195.00 435.00 C 192.00 435.00 189.00 435.00 186.00 435.00 C 186.00 432.00 186.00 429.00 186.00 426.00 Z" />
<path fill="#e10052" d=" M 204.00 426.00 C 204.75 426.00 206.25 426.00 207.00 426.00 C 207.00 429.00 207.00 432.00 207.00 435.00 C 206.25 435.00 204.75 435.00 204.00 435.00 C 204.00 432.00 204.00 429.00 204.00 426.00 Z" />
<path fill="#e10052" d=" M 213.00 426.00 C 215.00 426.00 217.00 426.00 219.00 426.00 C 219.00 429.00 219.00 432.00 219.00 435.00 C 217.00 435.00 215.00 434.99 213.00 435.00 C 213.00 432.00 213.00 429.00 213.00 426.00 Z" />
<path fill="#e10052" d=" M 225.00 426.00 C 225.75 426.00 227.25 426.00 228.00 426.00 C 228.00 429.00 228.00 432.00 228.00 435.00 C 227.25 435.00 225.75 435.00 225.00 435.00 C 225.00 432.00 225.00 429.00 225.00 426.00 Z" />
<path fill="#ffffff" d=" M 294.00 426.00 C 294.75 426.00 296.25 426.00 297.00 426.00 C 297.00 428.00 297.00 430.00 297.00 432.00 C 296.25 432.00 294.75 432.00 294.00 432.00 C 294.00 430.00 294.00 428.00 294.00 426.00 Z" />
<path fill="#303030" d=" M 612.05 426.05 C 619.02 425.94 626.00 425.99 632.98 426.04 C 632.97 426.77 632.95 428.24 632.94 428.97 C 626.00 429.04 619.05 429.05 612.11 428.94 C 612.09 428.21 612.06 426.77 612.05 426.05 Z" />
<path fill="#3e3e3e" d=" M 632.98 426.04 C 640.99 425.96 649.01 425.99 657.02 426.01 C 656.99 426.76 656.91 428.24 656.87 428.98 C 648.89 429.02 640.92 429.02 632.94 428.97 C 632.95 428.24 632.97 426.77 632.98 426.04 Z" />
<path fill="#4b4b4b" d=" M 657.02 426.01 C 663.01 425.99 669.01 425.98 675.00 426.01 C 675.00 426.75 675.00 428.24 675.00 428.98 C 668.96 429.02 662.91 429.01 656.87 428.98 C 656.91 428.24 656.99 426.76 657.02 426.01 Z" />
<path fill="#ffffff" d=" M 321.00 429.00 C 321.75 429.00 323.25 429.00 324.00 429.00 C 324.00 431.00 324.00 433.00 324.00 435.00 C 323.25 435.00 321.75 435.00 321.00 435.00 C 321.00 433.00 321.00 431.00 321.00 429.00 Z" />
<path fill="#ffffff" d=" M 525.00 432.00 C 525.75 432.00 527.25 432.00 528.00 432.00 C 528.00 432.75 528.00 434.25 528.00 435.00 C 527.25 435.00 525.75 435.00 525.00 435.00 C 525.00 434.25 525.00 432.75 525.00 432.00 Z" />
<path fill="#ffffff" d=" M 534.00 432.00 C 534.75 432.00 536.25 432.00 537.00 432.00 C 537.00 432.75 537.00 434.25 537.00 435.00 C 536.25 435.00 534.75 435.00 534.00 435.00 C 534.00 434.25 534.00 432.75 534.00 432.00 Z" />
<path fill="#ffffff" d=" M 549.00 432.00 C 549.75 432.00 551.25 432.00 552.00 432.00 C 552.00 432.75 552.00 434.25 552.00 435.00 C 551.25 435.00 549.75 435.00 549.00 435.00 C 549.00 434.25 549.00 432.75 549.00 432.00 Z" />
<path fill="#303030" d=" M 15.15 479.99 C 255.05 480.01 494.96 480.00 734.86 479.99 C 734.93 480.75 735.07 482.25 735.14 483.00 C 737.09 483.00 739.05 483.01 741.01 483.02 C 741.00 483.82 740.97 485.41 740.96 486.20 C 734.43 484.41 727.90 482.04 721.00 482.93 C 614.67 483.10 508.34 482.94 402.01 483.00 C 275.32 482.96 148.63 483.09 21.94 482.93 C 17.51 483.43 13.38 485.28 9.04 486.21 C 9.03 485.41 9.00 483.82 8.98 483.03 C 10.94 483.01 12.90 483.00 14.86 483.00 C 14.93 482.25 15.08 480.75 15.15 479.99 Z" />
<path fill="#3e3e3e" d=" M 9.04 486.21 C 13.38 485.28 17.51 483.43 21.94 482.93 C 148.63 483.09 275.32 482.96 402.01 483.00 C 508.34 482.94 614.67 483.10 721.00 482.93 C 727.90 482.04 734.43 484.41 740.96 486.20 C 741.67 486.29 743.08 486.46 743.79 486.55 C 743.81 487.20 743.84 488.50 743.86 489.15 C 744.60 489.16 746.09 489.19 746.84 489.20 C 746.89 492.11 746.97 495.03 747.04 497.95 C 746.30 497.97 744.80 498.02 744.05 498.04 C 744.03 498.77 743.98 500.22 743.96 500.95 C 743.23 500.97 741.78 501.02 741.05 501.05 C 741.02 501.79 740.95 503.26 740.92 504.00 C 738.97 504.00 737.03 503.99 735.09 504.00 C 735.05 504.75 734.96 506.25 734.92 507.00 C 666.96 506.99 599.01 507.01 531.05 507.00 C 530.99 503.14 530.95 499.28 530.93 495.43 C 530.23 495.29 528.84 494.99 528.15 494.84 C 528.01 494.15 527.74 492.76 527.60 492.07 C 426.09 491.92 324.57 492.04 223.06 492.00 C 173.86 492.12 124.65 491.80 75.46 492.12 C 75.30 492.79 74.99 494.13 74.83 494.80 C 74.15 494.97 72.77 495.31 72.09 495.48 C 72.06 499.31 72.02 503.15 71.96 506.99 C 53.00 507.01 34.03 506.99 15.07 507.00 C 15.03 506.25 14.96 504.75 14.92 504.00 C 12.98 503.99 11.03 504.00 9.09 504.00 C 9.05 503.27 8.98 501.79 8.95 501.06 C 8.22 501.03 6.76 500.96 6.03 500.93 C 6.01 500.21 5.98 498.78 5.96 498.06 C 5.21 498.03 3.70 497.95 2.95 497.92 C 3.02 495.02 3.10 492.12 3.16 489.22 C 3.91 489.20 5.40 489.16 6.15 489.14 C 6.16 488.49 6.19 487.19 6.21 486.54 C 6.91 486.46 8.33 486.29 9.04 486.21 Z" />
<path fill="#000000" d=" M 585.00 489.00 C 597.00 489.00 608.99 489.00 620.99 489.00 C 620.99 491.00 621.00 492.99 621.02 495.00 C 609.01 495.00 597.00 495.00 584.98 495.00 C 584.99 493.00 584.99 491.00 585.00 489.00 Z" />
<path fill="#000000" d=" M 639.01 489.00 C 651.00 489.00 663.00 489.00 675.00 489.00 C 674.99 491.00 675.00 493.00 675.01 495.00 C 663.00 495.00 650.99 495.00 638.98 495.00 C 638.98 493.00 638.99 491.00 639.01 489.00 Z" />
<path fill="#000000" d=" M 702.09 489.00 C 702.79 489.00 704.21 488.99 704.91 488.99 C 704.95 489.73 705.02 491.20 705.05 491.94 C 705.79 491.98 707.27 492.05 708.01 492.09 C 708.01 492.86 708.00 494.39 708.00 495.16 C 707.30 495.17 705.89 495.19 705.18 495.20 C 705.18 495.95 705.17 497.46 705.17 498.21 C 704.34 498.21 702.67 498.21 701.84 498.21 C 701.83 497.45 701.81 495.94 701.80 495.18 C 701.10 495.18 699.70 495.17 699.00 495.17 C 699.00 494.40 699.00 492.85 698.99 492.08 C 699.73 492.05 701.21 491.98 701.94 491.95 C 701.98 491.21 702.05 489.73 702.09 489.00 Z" />
<path fill="#303030" d=" M 75.46 492.12 C 124.65 491.80 173.86 492.12 223.06 492.00 C 324.57 492.04 426.09 491.92 527.60 492.07 C 527.74 492.76 528.01 494.15 528.15 494.84 C 480.44 495.20 432.72 494.91 385.01 495.00 C 329.02 494.99 273.03 495.00 217.04 495.00 C 169.64 494.87 122.23 495.27 74.83 494.80 C 74.99 494.13 75.30 492.79 75.46 492.12 Z" />
<path fill="#303030" d=" M 72.09 495.48 C 72.77 495.31 74.15 494.97 74.83 494.80 C 74.90 498.86 74.97 502.93 75.04 506.99 C 74.27 506.99 72.73 506.99 71.96 506.99 C 72.02 503.15 72.06 499.31 72.09 495.48 Z" />
<path fill="#3e3e3e" d=" M 74.83 494.80 C 122.23 495.27 169.64 494.87 217.04 495.00 C 273.03 495.00 329.02 494.99 385.01 495.00 C 432.72 494.91 480.44 495.20 528.15 494.84 C 528.08 498.89 528.01 502.94 527.94 507.00 C 376.97 507.00 226.01 507.00 75.04 506.99 C 74.97 502.93 74.90 498.86 74.83 494.80 Z" />
<path fill="#303030" d=" M 528.15 494.84 C 528.84 494.99 530.23 495.29 530.93 495.43 C 530.95 499.28 530.99 503.14 531.05 507.00 C 530.28 507.00 528.72 507.00 527.94 507.00 C 528.01 502.94 528.08 498.89 528.15 494.84 Z" />
<path fill="#303030" d=" M 584.98 495.00 C 597.00 495.00 609.01 495.00 621.02 495.00 C 620.98 496.97 620.94 498.94 620.90 500.92 C 608.96 501.03 597.01 501.06 585.07 500.97 C 585.04 498.97 585.01 496.99 584.98 495.00 Z" />
<path fill="#303030" d=" M 638.98 495.00 C 650.99 495.00 663.00 495.00 675.01 495.00 C 674.98 496.97 674.95 498.94 674.93 500.91 C 662.99 501.09 651.04 501.04 639.10 500.92 C 639.05 498.94 639.01 496.97 638.98 495.00 Z" />
<path fill="#ffffff" d=" M 0.00 498.00 C 0.75 498.00 2.25 498.00 3.00 498.00 C 3.00 498.75 3.00 500.25 3.00 501.00 C 3.75 501.00 5.25 501.00 6.00 501.00 C 6.00 501.75 6.00 503.25 6.00 504.00 C 6.75 504.00 8.25 504.00 9.00 504.00 C 9.00 504.75 9.00 506.25 9.00 507.00 C 11.00 506.99 13.00 506.99 15.00 507.00 C 15.00 507.75 15.00 509.25 15.00 510.00 L 0.00 510.00 L 0.00 498.00 Z" />
<path fill="#ffffff" d=" M 747.00 498.00 C 747.75 498.00 749.25 498.00 750.00 498.00 L 750.00 510.00 L 735.00 510.00 C 735.00 509.25 735.00 507.75 735.00 507.00 C 736.99 506.99 738.99 506.99 741.00 507.00 C 741.00 506.25 741.00 504.75 741.00 504.00 C 741.75 504.00 743.25 504.00 744.00 504.00 C 744.00 503.25 744.00 501.75 744.00 501.00 C 744.75 501.00 746.25 501.00 747.00 501.00 C 747.00 500.25 747.00 498.75 747.00 498.00 Z" />
</svg>
