<?xml version="1.0" standalone="no"?>
<!DOCTYPE svg PUBLIC "-//W3C//DTD SVG 20010904//EN"
 "http://www.w3.org/TR/2001/REC-SVG-20010904/DTD/svg10.dtd">
<svg version="1.0" xmlns="http://www.w3.org/2000/svg"
 width="128.000000pt" height="128.000000pt" viewBox="0 0 128.000000 128.000000"
 preserveAspectRatio="xMidYMid meet">
<metadata>
Created by potrace 1.11, written by Peter Selinger 2001-2013
</metadata>
<g transform="translate(0.000000,128.000000) scale(0.100000,-0.100000)"
fill="#000000" stroke="none">
<path d="M530 961 c-52 -32 -156 -95 -230 -141 -74 -45 -148 -90 -165 -100
-16 -9 -54 -32 -83 -50 l-54 -33 44 -27 c24 -15 137 -84 253 -153 116 -68 226
-134 245 -146 84 -50 109 -61 115 -50 4 6 15 13 25 17 9 4 148 86 309 182 258
155 289 176 274 188 -10 7 -52 33 -93 58 -41 25 -174 105 -295 179 -121 74
-227 134 -235 134 -8 1 -58 -26 -110 -58z"/>
</g>
</svg>
